<?xml version="1.0" encoding="utf-8"?>
<!-- Generator: $$$/GeneralStr/196=Adobe Illustrator 27.6.0, SVG Export Plug-In . SVG Version: 6.00 Build 0)  -->
<svg version="1.1" id="Capa_1" xmlns="http://www.w3.org/2000/svg" xmlns:xlink="http://www.w3.org/1999/xlink" x="0px" y="0px"
	 viewBox="0 0 300 300" style="enable-background:new 0 0 300 300;" xml:space="preserve">
<style type="text/css">
	.st0{fill:#FFFFFF;}
</style>
<g>
	<g>
		<path class="st0" d="M275.04,257.91c-0.32-30.88-0.13-61.76-0.13-92.66c0-10.09-5.13-15.19-15.25-15.19
			c-10.24-0.01-20.48-0.15-30.73,0.09c-3.31,0.08-3.93-0.99-3.93-4.06c0.1-35.27,0.08-70.55,0.06-105.82
			c0-10.23-4.92-15.14-15.12-15.14C154,25.14,98.08,25.26,42.14,25c-7.75-0.04-13.55,1.89-17.18,8.92c0,66.37,0,132.75,0,199.12
			c3.76,6.81,9.44,9.02,17.2,8.9c25.66-0.37,51.33,0.01,76.99-0.28c4.9-0.05,6.12,1.37,5.58,5.88c-0.39,3.2,0.15,6.51-0.12,9.73
			c-0.67,8.11,2.4,14.04,9.69,17.73c43.6,0,87.22,0,130.82,0C272.52,271.67,275.13,266.02,275.04,257.91z M123.64,186.51
			c-2.91,2.61-9.88,0.71-15.06,0.79c-0.98,0.01-1.95-0.06-2.93,0.01c-3.42,0.26-6.03,0.35-5.85-4.73c0.14-3.97-2.75-6.68-7.08-7.37
			c-3.41-0.56-6.78-0.57-10.16-0.08c-4.93,0.7-7.71,3.76-7.61,8.52c0.08,3.69-1.61,3.75-4.33,3.68c-6.17-0.13-12.36,0.01-18.55-0.06
			c-3.28-0.04-6.28,0.77-6.3,4.44c-0.01,3.78,3.07,4.31,6.32,4.26c6.51-0.12,13.02,0.08,19.52-0.09c2.51-0.06,3.18,0.62,3.28,3.19
			c0.23,6.39,3.47,9.3,9.89,9.48c1.78,0.05,3.58,0.05,5.37,0c6.39-0.18,9.62-3.1,9.84-9.53c0.09-2.63,0.89-3.2,3.32-3.14
			c6.02,0.15,12.04,0.14,18.06,0.01c2.36-0.05,3.41,0.36,3.37,3.11c-0.18,10.41-0.14,20.82-0.01,31.22
			c0.03,2.44-0.83,2.93-3.07,2.93c-27.65-0.06-55.31-0.09-82.96,0c-4.7,0.01-5.17-2.7-5.15-6.34c0.04-31.22,0.03-62.45,0.03-93.68
			c0-30.74,0-61.47,0-92.21c0-6.96,0.25-7.21,7.16-7.21c56.12,0,112.24,0,168.36,0c7,0,7.31,0.3,7.31,7.09
			c0,34.96-0.03,69.93,0.06,104.89c0.01,3.06-0.23,4.56-4.02,4.52c-3.67-0.04-4.07-1.33-4.06-4.48c0.12-30.74,0.08-61.47,0.06-92.21
			c0-8.92-2.8-11.81-11.5-11.81c-47.98,0-95.98,0-143.96,0c-8.68,0-11.4,2.7-11.42,11.26c-0.01,34.15-0.01,68.3,0,102.45
			c0,8.61,2.65,11.26,11.31,11.26c22.45,0.01,44.9,0.1,67.34-0.09c3.64-0.03,4.9,0.81,4.49,4.52
			C124.15,176.41,126.96,183.53,123.64,186.51z M83.42,188.3c-0.56-4.08,0.9-5.44,5-5.01c2.22,0.23,3.27,0.63,3.04,3.02
			c-0.17,1.77-0.04,3.56-0.03,5.35c0,1.29-0.13,2.61,0.03,3.89c0.39,3.09-0.22,4.55-3.98,4.51c-3.63-0.04-4.38-1.28-4.04-4.47
			C83.68,193.18,83.74,190.69,83.42,188.3z M127.91,155.17c-1.6,2.47-3.23,3.01-5.85,3.01c-22.62-0.08-45.23-0.1-67.85,0.03
			c-3.09,0.01-4.08-0.66-4.07-3.95c0.13-33.35,0.13-66.7,0-100.05c-0.01-3.4,1.15-3.89,4.13-3.87c23.43,0.12,46.86,0.06,70.29,0.06
			c23.6,0,47.19,0.09,70.78-0.09c3.6-0.03,4.55,0.79,4.53,4.48c-0.17,30.26-0.19,60.51,0.01,90.77c0.03,4.08-1.34,4.62-4.88,4.6
			c-18.72-0.15-37.43,0-56.13-0.13C134.24,149.99,130.32,151.47,127.91,155.17z M266.25,259.84c-0.01,5.46-1.2,6.56-6.6,6.56
			c-39.85,0.01-79.68,0.01-119.52,0c-5.19,0-6.74-1.36-6.75-6.55c-0.06-31.54-0.06-63.08,0-94.62c0.01-5.19,1.56-6.55,6.75-6.56
			c20.01-0.03,40-0.01,60.01-0.01c19.84,0,39.68-0.01,59.52,0.01c5.4,0,6.6,1.1,6.61,6.55C266.31,196.77,266.31,228.3,266.25,259.84
			z"/>
		<path class="st0" d="M146.55,96.89c-8.12-5.62-16.35-11.09-24.68-16.39c-6.75-4.29-13.59-0.45-13.79,7.62
			c-0.14,5.36-0.03,10.72-0.03,16.07c0,5.52-0.15,11.04,0.04,16.56c0.27,7.78,7.13,11.5,13.68,7.35
			c8.33-5.3,16.56-10.77,24.68-16.38C152.44,107.57,152.49,101.01,146.55,96.89z M139.73,105.98c-7.44,4.86-14.84,9.78-22.67,14.96
			c0-11.22,0-22.06,0-33.39c7.72,5.13,15.19,10.14,22.73,15.03C141.87,103.94,141.55,104.78,139.73,105.98z"/>
		<path class="st0" d="M244.09,229.26c-2.62,1.76-3.99-0.48-5.61-2.38c-2.62-3.1-5.24-6.21-8.06-9.14c-1.95-2.03-2.6-3.73-1.73-6.78
			c1.46-5.1-0.62-9.54-4.99-12.71c-4.37-3.15-9.14-3.25-13.59-0.44c-4.37,2.75-7.37,6.97-5.84,11.74c1.55,4.8-0.57,7.16-3.2,10.01
			c-2.31,2.51-4.48,5.14-6.77,7.67c-3.25,3.6-8.49,3.04-10.91-1.21c-5.95-10.4-11.82-20.85-17.88-31.18c-1.34-2.3-1.6-4-0.17-6.46
			c1.78-3.04,1.72-6.51,0.32-9.85c-2.47-5.86-8.63-9.17-14.62-7.83c-5.81,1.32-10.2,7.27-9.84,13.37
			c0.36,6.06,5.33,11.28,11.57,11.74c2.23,0.17,3.8,0.35,5.05,2.62c6.04,10.9,12.28,21.69,18.51,32.48
			c0.96,1.65,1.21,2.92,0.21,4.87c-2.89,5.63-1.85,11.21,2.36,15.05c4.28,3.91,9.57,4.57,14.32,1.81c5.41-3.14,7.68-8.29,6.25-14.45
			c-0.28-1.21-1.3-2.25-0.15-3.56c3.98-4.51,7.9-9.05,11.9-13.55c0.37-0.41,1.12-0.8,1.64-0.75c4.68,0.54,9.89-0.84,12.92,4.86
			c1.56,2.93,4.25,5.33,6.66,7.72c1.72,1.7,1.99,3.23,1.3,5.54c-1.7,5.68,0.61,10.88,5.85,14.05c4.77,2.89,9.92,2.36,14.38-1.49
			c3.97-3.42,5.4-9.04,3.47-13.65C255.15,231.84,250.05,228.63,244.09,229.26z M154.13,187.24c-2.56,0.06-3.97-1.52-4.02-3.8
			c-0.05-2.3,1.43-3.99,3.86-4.03c2.4-0.05,3.77,1.41,3.98,3.78C157.84,185.74,156.66,187.19,154.13,187.24z M187.34,245.75
			c-2.48-0.4-3.98-1.87-3.87-4.18c0.09-2.27,1.47-3.85,4.06-3.75c2.53,0.1,3.76,1.55,3.71,4.02
			C191.15,244.35,189.59,245.46,187.34,245.75z M216.41,212.35c-2.31-0.06-3.95-1.73-3.85-4.07c0.1-2.26,1.56-3.77,4.47-3.72
			c2.13,0.15,3.42,1.45,3.35,3.98C220.3,211.09,218.69,212.41,216.41,212.35z M245.77,245.77c-2.35-0.37-4-1.59-4-4.02
			c0-2.36,1.37-3.9,3.89-3.91c2.48-0.01,3.87,1.32,3.93,3.82C249.63,244.23,247.99,245.29,245.77,245.77z"/>
		<path class="st0" d="M51.9,225.21c15.42-0.06,30.83-0.04,46.25-0.01c3.01,0,5.76-0.48,5.84-4.2c0.09-4.04-2.85-4.52-6.03-4.51
			c-7.63,0.03-15.25,0.01-22.89,0.01s-15.25,0.06-22.89-0.03c-3.24-0.04-6.3,0.59-6.42,4.25C45.65,224.4,48.6,225.22,51.9,225.21z"
			/>
	</g>
</g>
</svg>
