<?xml version="1.0" encoding="utf-8"?>
<!-- Generator: $$$/GeneralStr/196=Adobe Illustrator 27.6.0, SVG Export Plug-In . SVG Version: 6.00 Build 0)  -->
<svg version="1.1" id="Capa_1" xmlns="http://www.w3.org/2000/svg" xmlns:xlink="http://www.w3.org/1999/xlink" x="0px" y="0px"
	 viewBox="0 0 300 300" style="enable-background:new 0 0 300 300;" xml:space="preserve">
<style type="text/css">
	.st0{fill:#FFFFFF;}
</style>
<g>
	<g>
		<path class="st0" d="M101.53,243.41c-1.3-0.67-1.75-1.41-1.75-2.88c0.06-12.25-0.09-24.5,0.07-36.75
			c0.12-8.87-5.02-16.02-12.9-19.11c-0.65-0.25-0.84-0.46-1.05-1.09c-2.31-6.52-4.7-13.02-7.05-19.55
			c-2.47-6.86-4.89-13.74-7.37-20.59c-4.35-12.06-8.72-24.13-13.12-36.18c-0.37-1.04-0.39-1.5,0.74-2.17
			c5.78-3.42,11.44-7.04,17.18-10.53c9.78-5.96,19.6-11.86,29.39-17.82c9.43-5.74,18.85-11.52,28.26-17.29
			c1.04-0.64,1.82-0.62,2.66,0.35c2.31,2.67,4.67,5.29,7.02,7.92c5.19,5.8,10.38,11.61,15.59,17.4
			c5.46,6.06,10.94,12.13,16.43,18.18c6.08,6.7,12.15,13.4,18.26,20.07c1,1.09,1.31,1.96,0.52,3.46
			c-3.52,6.76-6.87,13.62-10.26,20.45c-1.17,2.36-0.82,4.28,1.01,6.13c4.49,4.5,8.96,9.04,13.51,13.5c1.05,1.02,1.41,2.06,1.41,3.49
			c-0.05,12.84-0.05,25.69-0.02,38.53c0.01,6.54,6.55,12.69,12.75,12.04c7.96-0.84,12.2-5.99,12.2-13.56
			c-0.01-12.48,0.01-24.94-0.02-37.41c0-1.2,0.32-2.05,1.2-2.91c4.65-4.58,9.23-9.24,13.89-13.82c1.66-1.63,1.92-3.44,0.95-5.41
			c-2.69-5.46-5.54-10.87-8.21-16.34c-1.31-2.69-3.29-5.2-3.72-8.18c-1.02-7.17-5.83-12.87-12.81-14.47c-1-0.22-1.56-0.7-2.26-1.4
			c-4.39-4.48-8.33-9.34-12.58-13.96c-3.44-3.74-6.91-7.47-10.32-11.25c-6.2-6.87-12.34-13.8-18.53-20.67
			c-5.71-6.35-11.45-12.68-17.15-19.03c-1-1.11-1.38-2.52-1.68-3.94c-1.35-6.5-5.07-10.88-11.49-12.83
			c-6.62-2.02-13.36-0.06-18.03,5.76c-1.16,1.45-1.48,3.36-3.36,4.47c-11.42,6.8-22.73,13.79-34.06,20.71
			C73.49,64.87,60.17,73.05,46.8,81.16c-1.6,0.96-3.03,2.27-5.18,2.3c-5.3,0.07-9.64,2.08-13.07,6.35
			c-5.14,6.38-4.52,16.48,1.4,21.93c1.12,1.05,2.42,2.02,2.97,3.53c2.45,6.77,4.85,13.56,7.27,20.35
			c3.02,8.45,6.05,16.88,9.08,25.33c4.09,11.39,8.17,22.77,12.31,34.15c0.3,0.81,0.26,1.41-0.12,2.17
			c-3.58,7.09-7.09,14.21-10.69,21.28c-0.52,1.04-0.81,2.01-0.81,3.16c0.02,6.24-0.02,12.48,0.04,18.71c0.01,1.38-0.3,2.2-1.67,2.93
			c-4.19,2.27-6.49,5.78-6.4,10.73c0.1,5.56,0.02,11.14,0.02,16.71c0,3.07,1.16,4.22,4.24,4.22c9.58,0,19.15,0,28.73,0
			s19.15,0,28.73,0c3.09,0,4.67-1.55,4.67-4.55c0.01-5.41,0.11-10.84-0.02-16.26C108.13,249.36,105.84,245.66,101.53,243.41z
			 M208.06,164.13c-0.02-1.33,0.45-1.9,1.81-1.83c1.77,0.07,3.57,0.09,5.34-0.01c1.25-0.07,1.43,0.41,1.38,1.53
			c-0.11,2.3-0.04,4.59-0.04,6.9h-0.01c0,2.3-0.05,4.6,0.02,6.9c0.04,1.19-0.25,1.72-1.57,1.66c-2.21-0.12-5.1,0.75-6.46-0.34
			c-1.42-1.14-0.37-4.15-0.44-6.34C208.01,169.75,208.12,166.93,208.06,164.13z M216.53,194.38c0.07,1.62,0.01,3.26,0.01,4.89
			c0,2.89,0,5.78,0,8.67c0,2.68-1.52,4.57-3.78,4.7c-2.33,0.14-4.59-1.82-4.64-4.44c-0.11-6.45-0.02-12.9-0.05-19.35
			c0-0.84,0.19-1.29,1.1-1.16c0.07,0.01,0.15,0,0.22,0c2.3,0.04,5.19-0.76,6.69,0.34C217.51,189.1,216.42,192.19,216.53,194.38z
			 M224.56,136.33c1.2-1.25,1.31-0.41,1.7,0.36c1.86,3.74,3.66,7.52,5.58,11.24c0.49,0.95,0.54,1.51-0.27,2.28
			c-1.98,1.88-3.89,3.86-5.8,5.81c-0.69,0.7-1.12,1.07-1.75-0.16c-0.66-1.32-2.08-1.56-3.43-1.57c-5.34-0.02-10.68-0.02-16.02,0
			c-1.87,0.01-3.37,0.77-4.32,2.57c-2.31-2.31-4.52-4.57-6.81-6.75c-0.66-0.62-0.77-1.19-0.4-1.93c2.15-4.2,4.28-8.41,6.45-12.66
			C206.19,143.04,216.83,144.34,224.56,136.33z M212.29,116.74c5.26-0.04,8.51,3.98,8.62,8.3c0.11,4.23-3.74,8.7-8.5,8.31
			c-4.89,0.26-8.38-4.48-8.31-8.35C204.2,120.04,207.96,116.77,212.29,116.74z M150.66,51.6c0.39-0.69,0.9-0.91,1.57-0.17
			c2.5,2.71,5.08,5.33,7.54,8.07c3.14,3.51,6.18,7.11,9.31,10.62c6.25,7.01,12.53,14,18.8,20.97c3.06,3.39,6.16,6.74,9.23,10.11
			c2.66,2.93,5.3,5.89,8.1,9.01c-2.55,1.31-4.7,2.83-6.15,5.19c-0.37,0.61-0.69,0.74-1.4-0.1c-3.34-3.92-6.92-7.64-10.35-11.48
			c-4.62-5.14-9.16-10.34-13.76-15.48c-3.34-3.72-6.77-7.35-10.11-11.07c-4.5-5.03-8.93-10.12-13.42-15.15
			c-1.62-1.81-3.59-3.29-4.88-5.65C147.25,55.15,149.38,53.87,150.66,51.6z M137.32,33.17c4.23-0.12,8.78,3.87,8.37,8.36
			c0.16,4.9-3.58,8.51-8.33,8.47c-4.77-0.05-7.97-3.73-8.2-8.23C128.94,37.17,133.05,33.31,137.32,33.17z M53.94,86.32
			c6.36-3.84,12.75-7.64,19.09-11.5c8.48-5.16,16.87-10.48,25.4-15.57c7.02-4.19,14.04-8.41,20.96-12.76c1-0.62,1.88-1.21,2.53,0.76
			c0.86,2.62,2.27,5.08,4.69,7.05c-8.05,4.9-15.88,9.68-23.7,14.45c-9.59,5.85-19.19,11.69-28.79,17.53
			c-4.99,3.03-10.03,5.99-14.96,9.13c-1.3,0.82-1.48,0.51-1.83-0.71c-0.65-2.28-1.76-4.39-3.62-5.89
			C52.32,87.69,52.81,87,53.94,86.32z M33.1,99.99c-0.45-3.94,4.69-8.85,8.71-8.46c4.79,0.47,8.08,3.86,8.11,8.7
			c0.02,4.43-3.83,8.18-8.3,8.17C36.12,108.05,33.65,104.91,33.1,99.99z M61.34,169.98c-5.33-14.8-10.65-29.59-15.98-44.39
			c-0.94-2.59-1.83-5.19-2.78-7.78c-0.25-0.67-0.57-1.41,0.56-1.37c2.94,0.11,5.36-1.25,7.81-2.61c0.2-0.11,0.37-0.25,0.55-0.36
			c0.47,0.21,0.49,0.66,0.65,1.09c2.31,6.3,4.68,12.59,6.96,18.9c3.43,9.46,6.8,18.94,10.19,28.41c2.46,6.85,4.84,13.74,7.41,20.55
			c0.45,1.2-0.09,1.5-0.8,1.63c-2.64,0.54-5,1.61-7.14,3.26c-1.19,0.92-1.27-0.1-1.53-0.86C65.3,180.95,63.33,175.47,61.34,169.98z
			 M61.52,215.24c2.88-5.69,5.65-11.43,8.57-17.09c2.48-4.82,7.12-6.84,11.09-6.39c5.73,0.65,9.64,4.9,10.27,9.52
			c0.64,4.82,0.14,9.61,0.35,14.41c0.06,1.45-0.99,1.41-1.98,1.41c-4.6,0-9.21,0-13.81,0c-4.45,0-8.91-0.06-13.36,0.02
			C60.86,217.16,60.83,216.58,61.52,215.24z M58.31,226.51c-0.04-1.11,0.07-1.4,1.1-1.38c2.08,0.02,4.15,0.01,6.24,0.01
			c8.02,0,16.03,0.06,24.05-0.05c1.83-0.02,2.18,0.56,2.13,2.23c-0.11,4.3-0.1,8.61,0,12.91c0.04,1.45-0.34,1.88-1.82,1.86
			c-4.98-0.09-9.94-0.04-14.92-0.04c-5.05,0-10.09-0.04-15.15,0.02c-1.36,0.01-1.71-0.2-1.63-1.77
			C58.52,235.71,58.47,231.1,58.31,226.51z M98.25,267c-4.52-0.01-9.04,0-13.56,0c-3.26,0-6.52,0-9.78,0
			c-7.71,0-15.42-0.04-23.13,0.02c-1.38,0.01-1.93-0.26-1.88-1.8c0.12-3.56,0.14-7.12,0-10.67c-0.1-2.53,1.55-4.42,4.43-4.44
			c13.71-0.11,27.42-0.09,41.13-0.02c2.94,0.01,4.55,2.1,4.45,5.03c-0.11,3.41-0.26,6.82,0.01,10.22
			C100.04,267.02,99.39,267,98.25,267z"/>
		<path class="st0" d="M270.74,233.59c-3.34-0.02-6.69-0.16-10.02,0.05c-2.08,0.14-2.36-0.62-2.35-2.46
			c0.09-11.5,0.05-23.01,0.04-34.52c0-3.02-1.95-4.95-4.94-4.97c-5.13,0-10.24-0.02-15.37,0.01c-3.01,0.01-4.63,1.67-4.63,4.63
			c0,11.73-0.04,23.45,0.04,35.18c0.01,1.58-0.26,2.11-2.01,2.1c-12.61-0.09-25.24-0.1-37.85,0c-1.9,0.01-2.08-0.66-2.08-2.25
			c0.06-11.43,0.02-22.87,0.02-34.3c0-4.02-1.4-5.39-5.5-5.39c-4.75,0-9.51,0-14.25,0c-3.46,0-5.19,1.71-5.19,5.13
			c0,10.09,0,20.19,0,30.29c0,2.07,0.74,4.83-0.31,6.03c-1.21,1.37-4.04,0.2-6.15,0.46c-1.71,0.21-2.05-0.42-2.03-2.06
			c0.07-11.58,0.04-23.16,0.04-34.75c0-3.62-1.45-5.09-5.04-5.1c-4.83-0.01-9.66,0-14.47,0c-3.63,0-5.43,1.77-5.43,5.38
			c0,11.5-0.05,23.02,0.05,34.52c0.01,1.72-0.47,2.08-2.08,2.02c-3.33-0.12-6.67-0.05-10.02-0.04c-2.79,0.01-4.42,1.58-4.42,4.34
			c-0.01,10.92-0.01,21.82,0,32.74c0,2.84,1.52,4.35,4.33,4.35c24.86,0,49.74,0,74.61,0c25.01,0,50.03,0,75.04,0
			c2.47,0,4.17-1.62,4.17-4.1c0.01-11.07,0.01-22.12,0-33.19C274.89,235.26,273.19,233.61,270.74,233.59z M242.84,200.15
			c2.27,0.11,5.18-0.72,6.66,0.39c1.41,1.06,0.31,4.14,0.44,6.33c0.04,0.66,0,1.33,0,2c0,2.3-0.05,4.58,0.02,6.87
			c0.02,1.06-0.31,1.42-1.37,1.37c-1.85-0.07-3.69-0.04-5.54-0.01c-1.14,0.02-1.58-0.49-1.57-1.61c0.02-4.65,0.04-9.32,0-13.97
			C241.47,200.48,241.77,200.1,242.84,200.15z M249.95,229.26c0,4.32,0,4.32-4.35,4.32c-4.12,0-4.12,0-4.12-4.1
			c0-4.35,0-4.35,4.35-4.35C249.95,225.12,249.95,225.12,249.95,229.26z M245.91,241.6c4.08,0,4.08,0,4.04,3.97
			c-0.02,2.55-1.57,4.37-3.81,4.49c-2.52,0.14-4.29-1.37-4.65-3.98C240.92,241.89,241.21,241.6,245.91,241.6z M176.38,200.15
			c2.28,0.12,5.26-0.76,6.69,0.37c1.5,1.2,0.32,4.3,0.49,6.57c0.04,0.45,0,0.89,0,1.33c0,2.3-0.05,4.6,0.02,6.9
			c0.04,1.36-0.51,1.76-1.85,1.8c-7.09,0.21-7.09,0.24-7.09-6.82c0-2.82,0.09-5.65-0.04-8.46
			C174.56,200.41,175.06,200.07,176.38,200.15z M174.66,227.19c-0.15-1.48,0.39-2.25,2-2.1c0.81,0.07,1.62,0.01,2.43,0.01
			c4.49,0,4.49,0,4.49,4.44c0,4.02,0,4.02-3.98,4.02c-4.93,0-4.93,0-4.94-4.83C174.66,228.23,174.71,227.7,174.66,227.19z
			 M179.31,241.6c0.22,0,0.46-0.06,0.66,0.01c1.24,0.42,3.36-1.2,3.61,1.53c0.35,3.89-1.01,6.57-3.51,6.92
			c-2.55,0.35-4.42-0.89-4.97-3.28C173.97,241.9,174.21,241.6,179.31,241.6z M141.7,210.87c-0.06-0.81-0.01-1.62-0.01-2.43
			c0-2.22,0.05-4.44-0.02-6.65c-0.04-1.17,0.24-1.76,1.56-1.63c2.26,0.22,5.2-0.94,6.57,0.49c1.09,1.12,0.32,4.05,0.34,6.19
			c0.02,2.73-0.05,5.48,0.02,8.21c0.05,1.5-0.42,2.18-2.01,2.08c-2.06-0.12-4.72,0.67-6.01-0.35
			C140.78,215.7,141.85,212.91,141.7,210.87z M145.8,241.6c0.22,0,0.45-0.04,0.66,0.01c1.21,0.29,3.09-0.81,3.52,0.84
			c0.56,2.2,0.47,4.59-1.16,6.51c-1.22,1.42-3.03,1.46-4.49,0.99c-1.31-0.44-2.45-1.65-2.62-3.28c-0.04-0.3-0.01-0.6-0.01-0.89
			C141.62,241.6,141.62,241.6,145.8,241.6z M141.7,229.45c0-4.33,0-4.33,4.37-4.34c4.09,0,4.09,0,4.09,4.17c0,4.29,0,4.29-4.37,4.29
			C141.7,233.58,141.7,233.58,141.7,229.45z M264.75,267.04c-23.01-0.07-46.01-0.05-69.02-0.05c-22.86,0-45.71-0.02-68.58,0.05
			c-1.9,0-2.5-0.35-2.45-2.38c0.15-6.9,0.11-13.8,0.01-20.71c-0.02-1.9,0.61-2.52,2.43-2.37c1.47,0.11,2.98,0.14,4.45-0.01
			c1.47-0.15,1.7,0.46,1.66,1.76c-0.1,3.71,0.4,7.17,2.79,10.33c3.14,4.15,9.53,6.14,14.88,3.63c5.05-2.37,7.24-6.38,7.24-11.79
			c0-3.89,0-3.89,3.9-3.89c4.53,0,4.32,0.01,4.6,4.4c0.5,7.45,4.5,11.66,11.53,12.4c5.61,0.59,11.44-2.61,12.97-9.77
			c0.41-1.91,0.37-3.78,0.36-5.66c-0.01-1.07,0.31-1.38,1.37-1.38c13.06,0.02,26.12,0.02,39.19,0c1.09,0,1.36,0.35,1.37,1.4
			c0.02,2.2-0.21,4.38,0.4,6.59c2.37,8.52,13.61,12.08,20.72,5.35c2.84-2.69,3.79-6.34,3.79-10.21c0-3.11,0-3.11,3.17-3.11
			c5.29,0,5.29,0,5.29,5.21c0,6.01-0.06,12.03,0.04,18.03C266.94,266.55,266.53,267.04,264.75,267.04z"/>
	</g>
</g>
</svg>
