<?xml version="1.0" encoding="utf-8"?>
<!-- Generator: $$$/GeneralStr/196=Adobe Illustrator 27.6.0, SVG Export Plug-In . SVG Version: 6.00 Build 0)  -->
<svg version="1.1" id="Capa_1" xmlns="http://www.w3.org/2000/svg" xmlns:xlink="http://www.w3.org/1999/xlink" x="0px" y="0px"
	 viewBox="0 0 300 300" style="enable-background:new 0 0 300 300;" xml:space="preserve">
<style type="text/css">
	.st0{fill:none;stroke:#FFFFFF;stroke-width:10.1443;stroke-miterlimit:10;}
	.st1{fill:#FFFFFF;}
	.st2{fill:none;stroke:#FFFFFF;stroke-width:10.1233;stroke-miterlimit:10;}
	.st3{fill:none;stroke:#FFFFFF;stroke-width:10.2352;stroke-miterlimit:10;}
	.st4{fill:none;stroke:#FFFFFF;stroke-width:7.0088;stroke-linecap:round;stroke-linejoin:round;}
	.st5{fill:none;stroke:#FFFFFF;stroke-width:14.2661;stroke-linecap:round;stroke-linejoin:round;}
</style>
<g>
	<path class="st1" d="M47.28,111.13c0-17.3-0.01-34.59,0-51.89c0-5.43,0.79-6.38,6-7.53c31.21-6.91,62.43-13.83,93.64-20.78
		c2.04-0.45,3.98-0.48,6.02-0.03c31.38,6.98,62.77,13.93,94.15,20.89c4.69,1.04,5.57,2.15,5.57,7.05
		c0.01,34.87,0.17,69.74-0.1,104.6c-0.08,10.04-3.26,19.66-6.42,29.14c-7.21,21.64-18.2,41.05-34.64,57.07
		c-16.7,16.27-36.77,26.14-59.54,30.73c-2.55,0.51-4.96-0.19-7.38-0.74c-35.45-8.18-61.5-28.73-79.07-60.32
		c-9.16-16.48-15.21-34.05-17.97-52.73c-0.2-1.36-0.26-2.76-0.26-4.14C47.27,145.35,47.28,128.24,47.28,111.13z M70.64,120.28
		c0,13.87-0.01,27.74,0.02,41.61c0,1.93,0.03,3.91,0.38,5.8c2.53,13.54,6.86,26.47,13.44,38.59c13.8,25.46,34.1,42.88,62.5,50.2
		c1.83,0.47,3.61,0.62,5.46,0.14c9.83-2.5,19.15-6.21,27.75-11.65c21.06-13.32,34.39-32.62,42.86-55.63
		c4.34-11.79,6.65-23.85,6.41-36.59c-0.47-25.23-0.14-50.48-0.14-75.72c0-5.2-0.29-5.59-5.3-6.7c-23.35-5.2-46.71-10.38-70.07-15.56
		c-2.16-0.48-4.27-0.78-6.56-0.27c-23.97,5.38-47.97,10.66-71.95,15.99c-4.41,0.98-4.78,1.47-4.79,5.96
		C70.63,91.06,70.64,105.67,70.64,120.28z"/>
	<path class="st1" d="M222.27,121.85c0,10.08-0.39,20.18,0.1,30.24c0.65,13.46-2.53,26.05-7.43,38.33
		c-8.42,21.13-21.39,38.56-41.41,50.12c-6.68,3.86-13.81,6.64-21.24,8.71c-1.87,0.52-3.62,0.26-5.44-0.26
		c-26.66-7.57-45.24-24.62-57.54-49.02c-5.45-10.8-9.21-22.18-11.28-34.1c-0.22-1.27-0.33-2.57-0.33-3.85
		c-0.02-27.01,0.03-54.01-0.08-81.02c-0.01-2.91,0.97-3.93,3.75-4.54c22.04-4.77,44.04-9.71,66.04-14.63
		c1.66-0.37,3.27-0.45,4.93-0.07c22.28,4.96,44.55,9.93,66.84,14.82c2.3,0.5,3.15,1.5,3.14,3.92
		C222.21,94.29,222.27,108.07,222.27,121.85z M150.03,190.32c10.82,0,21.64-0.12,32.45,0.04c7.93,0.11,8.89-0.48,7.62-9.18
		c-3.41-23.4-24.28-38.27-47.62-34.34c-18.15,3.06-32.64,19.79-32.94,38.03c-0.07,4.47,0.84,5.44,5.25,5.44
		C126.54,190.33,138.28,190.32,150.03,190.32z M168.82,120.65c0.02-10.69-8.05-18.81-18.71-18.83
		c-10.28-0.02-18.72,8.35-18.81,18.63c-0.09,10.3,8.48,18.85,18.9,18.84C160.62,139.29,168.81,131.09,168.82,120.65z"/>
</g>
</svg>
