<?xml version="1.0" encoding="utf-8"?>
<!-- Generator: $$$/GeneralStr/196=Adobe Illustrator 27.6.0, SVG Export Plug-In . SVG Version: 6.00 Build 0)  -->
<svg version="1.1" id="Capa_1" xmlns="http://www.w3.org/2000/svg" xmlns:xlink="http://www.w3.org/1999/xlink" x="0px" y="0px"
	 viewBox="0 0 300 300" style="enable-background:new 0 0 300 300;" xml:space="preserve">
<style type="text/css">
	.st0{fill:none;stroke:#FFFFFF;stroke-width:10.1443;stroke-miterlimit:10;}
	.st1{fill:#FFFFFF;}
</style>
<g>
	<path class="st1" d="M54.78,214.76c11.08,6.57,23.08,9.48,37.94,8.58c2.19,0,6.37,0.13,10.53-0.04c3.49-0.14,6.5-1.36,6.85-5.43
		c0.41-4.75-2.55-6.72-6.72-7.04c-5.55-0.42-11.15-0.17-16.67-0.77c-24.61-2.69-43.75-21.25-46.31-44.66
		c-2.3-21.05,11.83-40.39,35.48-48.56c1.75-0.61,3.57-1.06,5.27-1.78c4.74-2.01,5.73-5.96,4.44-10.34c-1.41-4.76-5.33-4.51-9.12-3.3
		c-5.3,1.68-10.8,3.05-15.73,5.5c-21,10.45-34.07,26.71-35.58,50.79C23.61,182.58,33.04,201.89,54.78,214.76z"/>
	<path class="st1" d="M205.55,207.24c-3.95,1.31-7.99,2.39-11.81,4c-2.84,1.2-3.86,3.86-3.4,6.91c0.49,3.23,2.7,4.66,5.74,5.01
		c4.2,0.49,8.29-0.11,12.39-1.08c12.44-2.94,23.61-8.67,33.34-16.63c21.17-17.31,34.03-39.49,33.14-67.24
		c-1.68-53.02-46.76-85.18-86.61-83.39c-36.96-2.12-73.14,25.85-82.89,61.63c-1.23,4.5-2.12,9.02-1.77,13.69
		c0.26,3.47,1.56,6.34,5.5,6.94c3.72,0.57,6.32-1.16,7.78-4.43c0.93-2.09,1.71-4.33,2.12-6.57c4.73-26.36,22.04-41.84,45.26-52.23
		c25.24-11.29,48.07-6.02,68.81,10.67c19.54,15.73,27.98,36.46,25.16,61.32C254.67,178.05,235.44,197.29,205.55,207.24z"/>
	<path class="st1" d="M183.82,99.15c4.05-1.71,5.42-4.98,4.32-9.02c-1.05-3.85-4.31-4.36-7.77-4.12
		c-19.58,0.75-42.68,22.75-45.24,43.11c-0.36,2.83-0.36,5.7,2.54,7.28c3.2,1.75,6.61,1.29,8.82-1.44c1.97-2.43,3.07-5.59,4.4-8.5
		c5.42-11.9,14.08-20.38,26.4-25.01C179.45,100.65,181.69,100.04,183.82,99.15z"/>
	<path class="st1" d="M155.65,237.88c0.4-6.93,0.27-13.89,0.76-20.81c0.31-4.37,1.31-8.7,6.06-7.08c7.15,2.76,10.6-0.3,12.69-4.76
		c2.01-4.3-1.92-6.72-4.41-9.26c-4.55-4.63-9.35-9-13.99-13.54c-3.82-3.74-7.72-4.94-12.17-0.96c-5.52,4.94-11.22,9.69-16.62,14.75
		c-2.68,2.51-5.6,5.49-3.5,9.64c1.99,3.92,5.2,7.13,10,5.48c7.17-2.46,7.91,1.44,7.93,6.85c0.02,6.48,0.11,12.96,0.39,19.44
		c0.17,3.97,1.51,7.6,6.27,7.66C153.75,245.35,155.42,241.89,155.65,237.88z"/>
</g>
</svg>
