<?xml version="1.0" encoding="utf-8"?>
<!-- Generator: $$$/GeneralStr/196=Adobe Illustrator 27.6.0, SVG Export Plug-In . SVG Version: 6.00 Build 0)  -->
<svg version="1.1" id="Capa_1" xmlns="http://www.w3.org/2000/svg" xmlns:xlink="http://www.w3.org/1999/xlink" x="0px" y="0px"
	 viewBox="0 0 300 300" style="enable-background:new 0 0 300 300;" xml:space="preserve">
<style type="text/css">
	.st0{fill:none;stroke:#FFFFFF;stroke-width:10.1443;stroke-miterlimit:10;}
	.st1{fill:#FFFFFF;}
	.st2{fill:none;stroke:#FFFFFF;stroke-width:10.1233;stroke-miterlimit:10;}
	.st3{fill:none;stroke:#FFFFFF;stroke-width:10.2352;stroke-miterlimit:10;}
	.st4{fill:none;stroke:#FFFFFF;stroke-width:7.0088;stroke-linecap:round;stroke-linejoin:round;}
	.st5{fill:none;stroke:#FFFFFF;stroke-width:14.2661;stroke-linecap:round;stroke-linejoin:round;}
</style>
<g>
	<path class="st5" d="M108.33,236.11l44.44-44.44c3.25-3.25,8.52-3.25,11.78,0l21.56,21.56c3.25,3.25,8.52,3.25,11.78,0l44.44-44.44
		"/>
	<path class="st5" d="M41.67,25h216.67c0,0,16.67,0,16.67,16.67v216.67c0,0,0,16.67-16.67,16.67H41.67c0,0-16.67,0-16.67-16.67
		V41.67C25,41.67,25,25,41.67,25"/>
	<path class="st5" d="M58.33,111.11c0,27.61,22.39,50,50,50s50-22.39,50-50s-22.39-50-50-50S58.33,83.5,58.33,111.11"/>
	<path class="st5" d="M108.33,61.11v50l35.33,35.33"/>
	<path class="st5" d="M200,77.78h38.89"/>
	<path class="st5" d="M200,116.67h38.89"/>
</g>
</svg>
