<?xml version="1.0" encoding="utf-8"?>
<!-- Generator: $$$/GeneralStr/196=Adobe Illustrator 27.6.0, SVG Export Plug-In . SVG Version: 6.00 Build 0)  -->
<svg version="1.1" id="Capa_1" xmlns="http://www.w3.org/2000/svg" xmlns:xlink="http://www.w3.org/1999/xlink" x="0px" y="0px"
	 viewBox="0 0 300 300" style="enable-background:new 0 0 300 300;" xml:space="preserve">
<style type="text/css">
	.st0{fill:none;stroke:#FFFFFF;stroke-width:10.1443;stroke-miterlimit:10;}
	.st1{fill:#FFFFFF;}
	.st2{fill:none;stroke:#FFFFFF;stroke-width:10.1233;stroke-miterlimit:10;}
	.st3{fill:none;stroke:#FFFFFF;stroke-width:10.2352;stroke-miterlimit:10;}
	.st4{fill:none;stroke:#FFFFFF;stroke-width:7.0088;stroke-linecap:round;stroke-linejoin:round;}
	.st5{fill:none;stroke:#FFFFFF;stroke-width:14.2661;stroke-linecap:round;stroke-linejoin:round;}
</style>
<g>
	<path class="st1" d="M212.84,187.02c3.75-0.02,7.68,0.87,11.36,2.78c0.69,0.36,1.04,0.34,1.42-0.42c2.04-4.05,3.79-8.23,5.22-12.53
		c0.29-0.86,0.09-1.19-0.76-1.5c-9.85-3.63-15.78-10.61-17.54-20.97c-1.95-11.48,5.18-23.72,16.09-27.83
		c2.55-0.96,2.56-0.96,1.69-3.5c-1.29-3.79-2.89-7.44-4.69-11.01c-0.36-0.7-0.64-0.83-1.4-0.47c-8.88,4.19-17.62,3.88-25.91-1.39
		c-6.78-4.31-10.7-10.64-11.74-18.67c-0.67-5.17,0.2-10.1,2.54-14.75c0.39-0.78,0.35-1.16-0.49-1.58
		c-4.07-2.02-8.24-3.75-12.56-5.17c-0.77-0.25-1.09-0.18-1.4,0.68c-3.72,10.07-10.84,16.18-21.52,17.59
		c-12.5,1.65-23.88-5.62-27.99-17.53c-0.26-0.77-0.51-1.05-1.37-0.76c-4.29,1.46-8.49,3.15-12.56,5.17c-0.81,0.4-0.9,0.74-0.52,1.56
		c4.41,9.49,3.8,18.69-2.42,27.09c-5.89,7.96-14.09,11.31-23.99,10.34c-3.05-0.3-5.93-1.22-8.67-2.57
		c-0.57-0.28-0.99-0.48-1.37,0.31c-2.01,4.11-3.87,8.27-5.24,12.65c-0.25,0.81-0.18,1.16,0.72,1.49c9.7,3.57,15.61,10.4,17.49,20.62
		c0.39,2.12-0.93,3.87-3.07,4.23c-1.89,0.32-3.67-1.02-4.02-3.1c-0.53-3.13-1.71-5.97-3.65-8.48c-2.76-3.56-6.32-5.87-10.71-6.93
		c-4.17-1-5.58-3.5-4.36-7.63c1.9-6.47,4.48-12.66,7.78-18.55c1.77-3.16,4.81-3.96,7.9-2.07c8.07,4.94,17.73,3.76,24.12-2.95
		c5.8-6.09,6.68-15.57,2.13-22.92c-2.02-3.26-1.33-6.18,1.98-8.05c6.11-3.45,12.58-6.07,19.34-7.96c3.3-0.92,5.95,0.73,6.75,4.11
		c1.96,8.19,8,13.73,16.23,14.88c9.34,1.3,18.71-5.3,20.73-14.6c0.8-3.69,3.32-5.31,6.97-4.32c6.85,1.86,13.35,4.61,19.54,8.08
		c2.83,1.59,3.56,4.75,1.86,7.53c-5.07,8.27-3.92,17.89,2.9,24.27c6.12,5.73,15.78,6.62,22.84,2.1c3.32-2.12,6.44-1.31,8.31,2.12
		c3.33,6.09,6.02,12.44,7.84,19.14c0.92,3.38-0.79,6.02-4.23,6.77c-8.89,1.92-15.15,9.84-14.95,18.92
		c0.19,8.45,6.37,16.03,14.76,17.77c3.3,0.69,5.44,3.77,4.38,7.23c-2.03,6.6-4.58,12.96-7.94,18.98c-1.78,3.19-4.79,3.93-7.9,2.04
		c-7.96-4.82-17.43-3.77-23.8,2.64c-5.97,6-7.11,15.6-2.65,22.84c1,1.63,1.76,3.23,1.11,5.19c-0.43,1.3-1.18,2.32-2.37,2.99
		c-6.25,3.52-12.81,6.29-19.73,8.2c-3.46,0.95-6.17-0.75-6.92-4.29c-1.57-7.34-7.76-13.25-15.16-14.48c-2.1-0.35-3.43-1.68-3.5-3.5
		c-0.06-1.76,1.04-3.22,2.75-3.63c0.61-0.15,1.22-0.13,1.83-0.01c9.98,1.98,16.73,7.79,20.31,17.28c0.36,0.96,0.71,1.13,1.66,0.82
		c4.25-1.37,8.33-3.13,12.34-5.08c0.79-0.38,0.95-0.74,0.53-1.57c-7.98-16.08,2.03-34.92,19.84-37.41
		C210.15,187.07,211.29,187.06,212.84,187.02z"/>
	<path class="st1" d="M238.68,41.64c-0.09-1.57,0.32-3.56,1.09-5.46c0.26-0.64,0.17-1.04-0.44-1.3c-1.52-0.64-3.06-1.25-4.58-1.88
		c-0.65-0.27-0.78,0.19-0.97,0.63c-1.31,2.9-3.3,5.22-5.89,7.08c-8.25,5.94-20.67,2.74-24.94-6.48c-0.68-1.47-0.69-1.49-2.19-0.92
		c-1.08,0.41-2.12,0.91-3.19,1.31c-0.87,0.32-1.16,0.76-0.85,1.73c0.63,1.97,1.12,3.97,1.05,6.09c-0.19,5.92-2.81,10.51-7.58,13.9
		c-1.36,0.96-2.84,1.13-4.3,0.13c-1.25-0.85-1.66-2.06-1.5-3.5c0.12-1.13,0.83-1.91,1.72-2.47c4.75-2.99,5.76-9.52,2.92-13.67
		c-1.61-2.36-0.97-5.12,1.51-6.57c3.89-2.27,8.02-4.06,12.42-5.11c2.75-0.65,4.8,0.82,5.61,3.76c1.13,4.11,3.77,6.71,7.99,7.52
		c5.13,0.98,10.34-2.62,11.36-7.75c0.54-2.71,3.12-4.28,5.87-3.5c4.22,1.2,8.28,2.84,12.09,5.04c2.25,1.3,2.94,3.74,1.77,6.05
		c-0.42,0.82-0.91,1.61-1.24,2.47c-1.44,3.76-0.35,8.18,2.61,10.71c3.42,2.93,7.79,3.42,11.56,1.31c0.76-0.43,1.45-0.97,2.39-1.08
		c2.28-0.27,3.87,0.7,4.94,2.62c2.04,3.67,3.64,7.54,4.76,11.59c0.81,2.93-0.53,5.17-3.48,5.95c-3.99,1.04-6.62,3.48-7.62,7.5
		c-1.2,4.81,1.68,9.92,6.38,11.48c0.44,0.15,0.88,0.26,1.33,0.38c2.82,0.78,4.17,3,3.41,5.8c-1.13,4.21-2.81,8.21-4.96,12
		c-1.37,2.41-3.87,3.08-6.33,1.75c-1.74-0.94-3.49-1.68-5.54-1.69c-3-0.02-5.45,1.03-7.49,3.18c-1.54,1.63-3.57,1.86-5.05,0.64
		c-1.68-1.39-1.84-3.64-0.39-5.3c4.5-5.14,11.91-7.08,18.39-4.74c1.1,0.4,1.6,0.21,1.98-0.84c0.4-1.12,0.89-2.21,1.4-3.28
		c0.4-0.86,0.24-1.37-0.67-1.8c-3.7-1.76-6.43-4.51-8.23-8.21c-4.01-8.26-0.3-18.74,8.08-22.53c1.02-0.46,1.25-0.93,0.8-1.9
		c-0.53-1.15-1.01-2.32-1.49-3.5c-0.31-0.77-0.72-1-1.6-0.69c-6.45,2.26-12.33,1.03-17.39-3.4
		C240.44,51.46,238.63,47.15,238.68,41.64z"/>
	<path class="st1" d="M102.28,42.14c-0.07-2.07,0.4-4.05,1.09-5.97c0.25-0.7,0.13-1.09-0.54-1.36c-1.39-0.56-2.77-1.13-4.15-1.71
		c-0.81-0.34-1.06,0.17-1.37,0.77c-2.72,5.42-7.06,8.72-13.06,9.66c-7.33,1.15-14.67-2.81-17.79-9.55c-0.47-1.02-0.91-1.2-1.88-0.74
		c-1.1,0.53-2.26,0.97-3.41,1.4c-0.94,0.35-1.14,0.81-0.79,1.83c3.86,11.26-4.05,22.57-16.03,22.71c-1.93,0.02-3.84-0.28-5.63-1.01
		c-1.08-0.44-1.61-0.19-1.97,0.91c-0.37,1.13-0.84,2.23-1.38,3.29c-0.46,0.91-0.23,1.31,0.67,1.75c5.04,2.45,8.25,6.42,9.46,11.91
		c1.66,7.51-2.2,15.41-9.12,18.74c-1.51,0.73-1.52,0.73-0.86,2.33c0.47,1.13,0.99,2.25,1.45,3.39c0.28,0.67,0.64,0.78,1.34,0.53
		c5.68-2,11.02-1.31,16.01,2.07c1.06,0.72,1.96,1.61,2.8,2.55c1.37,1.53,1.28,3.69-0.17,5.06c-1.46,1.38-3.58,1.31-5.04-0.23
		c-1.84-1.94-4.02-3.17-6.72-3.39c-1.96-0.16-3.81,0.2-5.54,1.16c-1.03,0.57-2.03,1.26-3.3,1.22c-1.62-0.05-2.96-0.67-3.78-2.05
		c-2.35-3.99-4.14-8.24-5.31-12.71c-0.66-2.54,0.96-4.87,3.62-5.52c5.67-1.38,8.9-6.39,7.54-12.04c-0.88-3.68-3.35-6.07-7-7.1
		c-3.83-1.08-5.03-3.18-3.81-6.99c1.19-3.74,2.65-7.36,4.6-10.79c1.48-2.59,4.23-3.35,6.78-1.78c6.58,4.04,14.76-0.1,15.29-7.79
		c0.14-2.04-0.45-3.93-1.49-5.71c-1.8-3.08-1.06-5.44,2.1-7.15c3.53-1.9,7.2-3.45,11.07-4.52c3.14-0.87,5.45,0.51,6.23,3.67
		c0.92,3.78,3.38,6.18,7.04,7.23c3.59,1.03,6.81,0.16,9.53-2.5c1.39-1.36,2.27-2.96,2.74-4.83c0.8-3.15,3.21-4.48,6.32-3.56
		c3.84,1.15,7.53,2.66,11.06,4.56c1.95,1.05,3.16,2.52,2.91,4.9c-0.08,0.8-0.41,1.46-0.82,2.12c-2.53,4.01-1.93,9.13,1.46,12.47
		c0.68,0.67,1.59,1.05,2.26,1.77c1.18,1.27,1.35,3.1,0.35,4.54c-0.95,1.37-2.75,1.86-4.31,1.08c-3.17-1.61-5.35-4.2-6.86-7.35
		C102.79,47.11,102.22,44.68,102.28,42.14z"/>
	<path class="st1" d="M194.97,150.78c-0.15,11.09-3.7,20.9-10.99,29.32c-4.85,5.6-10.74,9.7-17.61,12.43
		c-1.56,0.62-2.95,0.38-4.11-0.84c-1.1-1.15-1.27-2.5-0.67-3.95c0.4-0.98,1.19-1.54,2.16-1.93c7.82-3.11,14.06-8.19,18.41-15.38
		c6.27-10.35,7.54-21.4,3.25-32.72c-5.35-14.11-15.85-22.26-30.73-24.45c-16.56-2.43-33.14,7.22-39.64,22.72
		c-0.16,0.39-0.31,0.79-0.48,1.17c-0.85,1.88-2.85,2.71-4.69,1.97c-1.83-0.75-2.7-2.74-1.97-4.68c1.54-4.09,3.68-7.86,6.39-11.28
		c6.73-8.48,15.31-14.1,25.94-16.37c12.71-2.71,24.56-0.49,35.24,6.88c11.12,7.67,17.48,18.4,19.25,31.81
		c0.12,0.87,0.2,1.76,0.24,2.64C195,149.01,194.97,149.9,194.97,150.78z"/>
	<path class="st1" d="M71.19,225.51c-0.04-1.28,0.72-2.15,1.56-2.97c7.03-6.92,13.96-13.94,21-20.86
		c10.15-9.98,20.17-20.1,30.24-30.17c1.31-1.31,1.3-1.33-0.44-1.8c-1.56-0.42-3.11-0.84-4.67-1.26c-1.43-0.38-2.18-1.13-2.26-2.27
		c-0.08-1.11,0.5-1.86,1.88-2.44c8.67-3.63,17.34-7.27,26.01-10.91c1.05-0.44,2.01-0.46,2.88,0.37c0.89,0.85,0.83,1.83,0.39,2.86
		c-3.67,8.7-7.34,17.4-11.02,26.09c-0.52,1.23-1.38,1.85-2.43,1.72c-1.15-0.15-1.84-0.85-2.14-1.97c-0.47-1.78-0.97-3.55-1.45-5.33
		c-0.33-1.22-0.45-1.28-1.4-0.36c-1.84,1.79-3.66,3.61-5.47,5.43c-14.15,14.13-28.31,28.27-42.46,42.4
		c-1.39,1.38-2.75,2.79-4.18,4.12c-1.15,1.07-2.53,1.25-3.96,0.63C71.84,228.2,71.23,227.02,71.19,225.51z"/>
	<path class="st1" d="M27.19,223.07c0.07-0.97,0.49-1.82,1.24-2.56c7.59-7.56,15.16-15.14,22.74-22.72
		c5.68-5.67,11.36-11.35,17.03-17.02c0.96-0.96,0.94-1.01-0.38-1.35c-1.67-0.43-3.34-0.87-5.02-1.29c-1.51-0.38-2.13-0.95-2.23-2.11
		c-0.11-1.31,0.33-2.02,1.76-2.62c8.67-3.64,17.35-7.27,26.02-10.91c1.08-0.46,2.12-0.48,2.98,0.4c0.84,0.86,0.73,1.87,0.3,2.9
		c-3.4,8.06-6.81,16.13-10.21,24.19c-0.3,0.71-0.57,1.43-0.89,2.13c-0.42,0.92-1.13,1.46-2.16,1.43c-1.07-0.03-1.85-0.6-2.16-1.61
		c-0.58-1.91-1.09-3.84-1.62-5.76c-0.33-1.18-0.41-1.21-1.25-0.38c-9.37,9.36-18.7,18.78-28.14,28.07
		c-3.99,3.93-7.94,7.9-11.9,11.85c-1,1-2.68,1.27-4.07,0.66C28.07,225.87,27.17,224.44,27.19,223.07z"/>
	<path class="st1" d="M140.37,212.71c0.02,0.59-0.2,1.13-0.42,1.66c-3.47,8.24-6.93,16.49-10.41,24.73
		c-0.16,0.39-0.37,0.76-0.53,1.15c-0.45,1.09-1.25,1.6-2.44,1.5c-1.12-0.09-1.72-0.74-2-1.76c-0.5-1.81-0.98-3.63-1.5-5.44
		c-0.38-1.33-0.4-1.33-1.33-0.4c-5.17,5.14-10.33,10.29-15.5,15.43c-8.08,8.04-16.16,16.08-24.24,24.12
		c-1.59,1.58-3.72,1.72-5.15,0.36c-1.59-1.52-1.62-3.61,0.05-5.3c2.95-3.01,5.98-5.94,8.96-8.93c2.84-2.85,5.6-5.78,8.49-8.57
		c6.97-6.71,13.69-13.67,20.59-20.45c0.63-0.62,1.22-1.28,1.87-1.87c0.74-0.68,0.46-0.97-0.35-1.17c-1.79-0.45-3.57-0.93-5.35-1.4
		c-1.42-0.37-2.06-1.03-2.14-2.2c-0.08-1.18,0.42-1.89,1.8-2.47c8.57-3.59,17.14-7.17,25.71-10.75c0.8-0.34,1.6-0.76,2.53-0.31
		C139.9,211.06,140.37,211.72,140.37,212.71z"/>
	<path class="st1" d="M60.59,79.53c-0.02,4.95,1.55,9.34,4.62,13.21c1.38,1.73,1.18,3.96-0.44,5.23c-1.64,1.29-3.76,0.95-5.18-0.82
		c-8.41-10.5-8.21-25.52,0.52-35.79c5.26-6.19,11.95-9.56,20.1-10.05c7.45-0.45,13.98,1.82,19.77,6.43c1.39,1.11,1.69,3.26,0.74,4.7
		c-1.08,1.62-2.96,2.17-4.63,1.16c-1.73-1.05-3.34-2.28-5.18-3.2c-7.1-3.58-16.92-2.31-22.89,3.05
		C63.07,67.88,60.6,73.23,60.59,79.53z"/>
	<path class="st1" d="M246.62,80c-0.09,6.16-2.11,11.96-6.12,17.06c-1.46,1.86-3.59,2.21-5.26,0.9c-1.61-1.27-1.79-3.4-0.39-5.23
		c4.48-5.88,5.69-12.35,3.66-19.46c-2.13-7.48-9.57-13.8-17.3-14.73c-6.19-0.74-11.71,0.79-16.58,4.69
		c-1.66,1.33-3.96,1.05-5.21-0.6c-1.11-1.46-0.75-3.85,0.81-5.04c9.41-7.22,19.67-8.4,30.33-3.5c8.15,3.75,13.23,10.4,15.33,19.2
		C246.4,75.39,246.6,77.52,246.62,80z"/>
</g>
</svg>
