<?xml version="1.0" encoding="utf-8"?>
<!-- Generator: $$$/GeneralStr/196=Adobe Illustrator 27.6.0, SVG Export Plug-In . SVG Version: 6.00 Build 0)  -->
<svg version="1.1" id="Capa_1" xmlns="http://www.w3.org/2000/svg" xmlns:xlink="http://www.w3.org/1999/xlink" x="0px" y="0px"
	 viewBox="0 0 300 300" style="enable-background:new 0 0 300 300;" xml:space="preserve">
<style type="text/css">
	.st0{fill:none;stroke:#FFFFFF;stroke-width:10.1443;stroke-miterlimit:10;}
	.st1{fill:#FFFFFF;}
	.st2{fill:none;stroke:#FFFFFF;stroke-width:10.1233;stroke-miterlimit:10;}
</style>
<g>
	<path class="st1" d="M254.9,132.23c0,21.38,0,42.76,0,64.13c0,4.11-0.01,4.12-4.14,4.4c-20.34,1.35-40.05,5.41-58.81,13.61
		c-13.4,5.86-25.89,13.18-37,22.76c-0.86,0.74-1.68,2.29-2.95,1.68c-1.08-0.52-0.58-2.07-0.58-3.17c-0.02-42.84,0-85.69-0.05-128.53
		c0-2.18,0.59-3.81,2.23-5.31c11.69-10.7,24.94-18.91,39.46-25.18c10.98-4.74,22.35-8.15,34.08-10.44
		c7.75-1.51,15.57-2.38,23.44-2.89c4.19-0.27,4.33-0.13,4.33,4.01C254.9,88.95,254.9,110.59,254.9,132.23z"/>
	<path class="st1" d="M45.2,131.92c0-21.54,0-43.09,0-64.63c0-4.19,0.03-4.25,4.3-3.99c29.22,1.77,56.43,9.88,81.05,26
		c5.42,3.55,10.46,7.63,15.34,11.9c2.09,1.83,2.88,3.83,2.87,6.62c-0.1,24.17-0.06,48.34-0.06,72.51c0,18.22,0,36.43,0,54.65
		c0,0.35,0.03,0.7-0.01,1.05c-0.1,1.01,0.41,2.42-0.68,2.87c-1.05,0.43-1.82-0.84-2.57-1.5c-7.29-6.36-15.26-11.73-23.72-16.38
		c-15.87-8.71-32.75-14.51-50.57-17.68c-7.43-1.32-14.92-1.98-22.41-2.58c-3.38-0.27-3.53-0.26-3.53-3.68
		C45.2,175.36,45.2,153.64,45.2,131.92z"/>
	<path class="st1" d="M275,177.27c0,21.11,0,42.23,0,63.34c0,3.59-0.07,3.65-3.7,3.65c-38.46,0-76.92,0.01-115.38-0.03
		c-1.01,0-2.69,0.68-2.88-0.79c-0.15-1.19,1.52-1.5,2.56-1.85c15.71-5.27,31.71-9.41,48.03-12.3c13.85-2.46,27.77-3.75,41.83-2.97
		c5.85,0.32,11.67,1.22,17.3,2.96c3.3,1.02,4.06,0.47,4.06-3.09c0.02-16.29,0.01-32.59,0.01-48.88c0-21.29,0-42.58,0-63.86
		c0-3.48,0.02-3.49,3.51-3.5c0.88,0,1.75,0.03,2.63,0.01c1.48-0.04,2.02,0.78,2.01,2.14c-0.01,0.88,0.02,1.75,0.02,2.63
		C275,135.57,275,156.42,275,177.27z"/>
	<path class="st1" d="M25.1,177.18c0-21.11-0.01-42.22,0.03-63.33c0-1.3-0.67-3.23,1.06-3.67c2.07-0.52,4.34-0.55,6.47,0.13
		c0.52,0.17,0.54,0.86,0.56,1.39c0.03,0.96,0.04,1.93,0.04,2.89c0,36.7,0,73.41,0,110.11c0,0.96-0.03,1.93,0.03,2.89
		c0.12,1.77,1.06,2.62,2.81,2.06c11.81-3.8,23.99-3.92,36.16-3.31c11.2,0.56,22.28,2.34,33.25,4.65
		c12.42,2.62,24.69,5.86,36.75,9.85c1.49,0.49,3.06,0.83,4.32,1.84c0.32,0.26,0.77,0.59,0.46,1.07c-0.16,0.24-0.56,0.41-0.87,0.44
		c-0.69,0.08-1.4,0.06-2.1,0.06c-38.37,0-76.74,0-115.11,0c-3.87,0-3.88-0.01-3.88-4.01C25.1,219.23,25.1,198.21,25.1,177.18z"/>
	<path class="st1" d="M161.71,235.74c3.05-2.93,6.48-4.99,9.83-7.14c20.72-13.28,43.51-20.73,67.82-23.76
		c4.77-0.59,9.59-0.88,14.39-1.16c4.04-0.24,4.16-0.25,4.16-4.21c0-31.01,0-62.02,0-93.03c0-0.53-0.11-1.08,0.02-1.57
		c0.32-1.19-1.08-3.31,1.67-3.23c3.08,0.09,3.91,0.88,3.95,3.49c0.6,38.8,0.1,77.61,0.26,116.41c0.02,4.52-0.03,4.66-4.4,3.74
		c-16.11-3.38-32.21-2.43-48.33-0.19c-15.47,2.15-30.61,5.74-45.56,10.18C164.39,235.59,163.27,236.23,161.71,235.74z"/>
	<path class="st1" d="M138.79,236.09c-4.13-0.43-7.27-1.79-10.48-2.69c-17.07-4.76-34.38-8.4-52.03-9.85
		c-12.39-1.02-24.87-1.02-37.09,2.01c-2.17,0.54-2.93,0.02-2.82-2.15c0.07-1.22-0.08-2.45-0.08-3.67c0-37.23,0-74.45,0-111.68
		c0-1.05-0.02-2.11,0.07-3.15c0.19-2.21,2.8-3.91,4.93-3.31c0.62,0.18,0.84,0.57,0.86,1.14c0.03,0.87,0.04,1.75,0.04,2.63
		c0,31.36,0,62.71,0,94.07c0,3.98,0.12,4.03,4.14,4.22c29.31,1.4,56.8,8.88,81.75,24.67C131.59,230.55,135.17,232.71,138.79,236.09z
		"/>
</g>
</svg>
