<?xml version="1.0" encoding="utf-8"?>
<!-- Generator: $$$/GeneralStr/196=Adobe Illustrator 27.6.0, SVG Export Plug-In . SVG Version: 6.00 Build 0)  -->
<svg version="1.1" id="Capa_1" xmlns="http://www.w3.org/2000/svg" xmlns:xlink="http://www.w3.org/1999/xlink" x="0px" y="0px"
	 viewBox="0 0 300 300" style="enable-background:new 0 0 300 300;" xml:space="preserve">
<style type="text/css">
	.st0{fill:#FFFFFF;}
</style>
<g>
	<g>
		<path class="st0" d="M266.68,187.28c-8.18-2.16-10.12-7.33-12.25-13.62c-1.68-5-3.79-9.89-5.21-14.95
			c-3.04-10.8-10.51-16.74-20.99-18.87c-21.04-4.27-42.34-4.15-63.57-1.79c-14.43,1.61-14.37,2.13-14.99-13.11
			c-0.99-24.1-13.37-39.03-36.62-42.49c-13.15-1.96-26.64-2.05-39.81,0.16c-22.6,3.8-34.59,18.08-35.56,41.12
			c-0.5,11.64-0.99,23.27-1.27,34.92c-0.42,17.92,6.7,27.72,24.06,32.87c13.23,3.93,26.89,3.98,40.55,4.01c2.61,0,7.3-1.89,7.58,2
			c0.34,4.86-4.68,3.49-7.67,3.53c-16.31,0.17-32.63,0.08-48.94,0.2c-2.4,0.01-6.36-1.19-6.45,2.39c-0.09,3.74,3.91,2.53,6.3,2.55
			c18.98,0.16,37.96,0.1,56.92,0.34c3.2,0.04,8.52-1.89,8.31,3.94c-0.16,4.61-4.53,4.79-8.42,4.77
			c-16.64-0.09-33.29-0.17-49.93,0.01c-7.77,0.09-15.67-1.02-23.88,1.15c2.27,4.58,5.99,3.2,8.97,3.21
			c20.31,0.12,40.62-0.16,60.92,0.25c4.1,0.08,11.74-3.62,11.59,4.64c-0.14,6.92-7.14,4.31-11.25,4.35
			c-23.97,0.25-47.93,0.12-71.91,0.2c-2.72,0.01-5.99-1.65-8.14,2.22c2.22,3.64,5.85,2.3,8.84,2.31c22.97,0.1,45.94,0.05,68.91,0.07
			c15.78,0,13.81-1.1,13.78,13.95c-0.05,25.44,0.22,25.56,25.47,24.78c6.63-0.21,11.1-2.23,11.6-9.27c0.43-6.15,3.81-7.51,9.33-7.46
			c19.64,0.22,39.29,0.24,58.92,0.05c5.47-0.05,8.75,0.84,8.8,7.46c0.05,6.43,4.49,9.18,10.72,9.17c4.32-0.01,8.67-0.24,12.98,0.08
			c9.38,0.71,13.35-3.77,13.58-12.84c0.37-14.65,0.44-29.28-0.77-43.9c-0.26-3.1-1.5-6.28,2.08-9.01
			C277.73,200.18,276.8,189.95,266.68,187.28z M62.82,187.32c-13.94-2.76-21.49-12.66-21.71-26.91c-0.09-5.99-0.01-11.99-0.01-17.84
			c1.8-9.67,0.31-19.43,2.82-28.9c3.94-14.89,14.99-25.05,30.26-25.97c12.6-0.76,25.31-0.78,37.92-0.05
			c15.58,0.9,27.15,10.2,30.43,25.57c2.85,13.37,5.49,26.85-4.95,39.69c-5.29,6.52-6.71,16.31-9.34,24.8
			c-1.76,5.71-4.99,8.8-10.89,9.95C99.13,191.16,80.91,190.88,62.82,187.32z M264.22,201.8c-4.05,0.73-2.57,3.63-2.14,6.22
			c2.74,16.54,0.88,33.2,1.48,49.8c0.27,7.43-3.03,10.32-10.23,9.64c-2.96-0.27-6.01-0.29-8.97-0.01c-6.28,0.59-9.57-1.95-9.34-8.37
			c0.24-6.26-3.1-7.82-8.76-7.69c-11.64,0.27-23.3,0.08-34.95,0.08c-11.31,0-22.63,0.2-33.95-0.09c-5.42-0.13-8.16,1.49-7.73,7.29
			c0.52,7.18-3.57,9.31-10,8.79c-2.65-0.21-5.35-0.31-7.98,0c-7.97,0.95-10.58-2.53-10.27-10.32c0.67-16.27,0.68-32.57,0.9-48.86
			c0.04-2.72,1.61-6.35-3.16-6.91c-2.82-0.33-5.62-0.72-4.64-4.64c0.86-3.44,2.83-6.69,6.58-6.45c7.71,0.48,9.3-4.87,11.15-10.29
			c1.59-4.69,3.7-9.26,4.7-14.07c3.25-15.44,13.78-22.44,28.28-23.43c19.87-1.36,39.81-2.66,59.65,1.16
			c10.81,2.09,17.95,7.6,20.9,18.51c1.63,6.03,4.32,11.78,6.24,17.75c1.79,5.55,3.24,10.67,11.04,10.2c3.89-0.24,6.6,3.2,7.14,7.16
			C270.82,201.84,267.15,201.28,264.22,201.8z"/>
		<path class="st0" d="M138.63,54.55c34.83-29.05,75.19-29.33,108.59-0.76c1.83,1.57,2.91,4.71,6.88,3.46
			c0.48-2.51-0.63-3.71-1.83-4.9c-33.89-33.44-82.51-32.68-117.44-1.03c-1.8,1.63-4.04,3.58-1.68,5.67
			C135.69,59.29,137.06,55.86,138.63,54.55z"/>
		<path class="st0" d="M188.97,51.93c-15.9,0.89-29.61,6.94-38.36,21.96c29.17-25.3,58.03-23.13,87.33,0.25
			C226.52,54.15,208.39,50.86,188.97,51.93z"/>
		<path class="st0" d="M182.41,111.67c-0.13,7.09,4.61,11.34,11.14,11.74c7.07,0.43,12.23-3.57,12.66-11.13
			c0.44-7.72-4.82-10.98-11.57-12.68C187.75,100.85,182.54,104.12,182.41,111.67z M200.6,112.35c-0.42,3.7-2.61,5.92-6.47,5.75
			c-4.45-0.18-6.39-3-5.98-7.3c0.38-4.08,3.13-5.67,6.87-5.37C198.96,105.74,200.7,108.3,200.6,112.35z"/>
		<path class="st0" d="M220.7,90.06c2.23-2.36-0.5-3.4-1.65-4.62c-6.75-7.22-15.31-10.11-28-10.19c-6.73-0.22-15.19,3.02-22.5,9.34
			c-1.45,1.25-3.38,2.78-1.53,4.86c1.37,1.54,3.07,0.39,4.36-0.64c15.15-12.06,30.17-11.98,45.09,0.43
			C217.69,90.26,219.1,91.75,220.7,90.06z"/>
		<path class="st0" d="M245.39,183.76c-2.56-6.79-5.16-13.65-6.78-20.69c-1.57-6.83-5.56-10.03-11.98-11.45
			c-21.41-4.79-42.89-2.76-64.4-1.1c-10.44,0.81-16.06,6.16-18.09,16.4c-1.15,5.79-3.57,11.32-5.6,16.91
			c-2.17,5.94-1.04,9.01,5.99,10.06c15.78,2.35,31.49,4.74,47.52,3.85c16.01,0.86,31.74-1.36,47.5-3.89
			C246.63,192.72,247.68,189.82,245.39,183.76z M223.11,191.77c-10.28,1.04-20.51,2.31-30.47,1.76c-15.11,0.63-29.6-1.28-44.07-3.64
			c-5.47-0.89-6.78-2.99-4.44-7.98c1.38-2.96,2.12-6.24,3.15-9.38c5.43-16.6,6.18-17.68,23.38-18.52
			c14.62-0.71,29.35-0.88,43.94,0.04c13.24,0.84,18.78,3.07,22.15,17.91C240.91,190.29,241.77,189.86,223.11,191.77z"/>
		<path class="st0" d="M164.78,219.38c-6.57-3.79-13.34-7.12-21.02-8.15c-6.19-0.82-10.55,1.07-11.25,7.81
			c-0.61,6.05,0.59,11.11,7.75,12.84c4.23,1.02,8.41,1.62,12.75,1.55c2.96-0.14,5.97-0.08,8.89-0.51c3.71-0.54,7.3-1.83,8.14-6.06
			C170.85,222.84,167.61,221.01,164.78,219.38z M162.81,227.92c-2.74,4.1-11.79,2.55-18.13,0.46c-5.59-1.84-6.54-3.75-6.9-4.3
			c-1.61-2.53-1.02-5.9,0.93-7.29c2.49-1.78,6.96-0.43,15.49,2.39c0.33,0.1,0.52,0.18,0.93,0.31c7.59,2.65,8.31,4.71,8.31,4.71
			C163.89,225.47,163.45,226.97,162.81,227.92z"/>
		<path class="st0" d="M211.9,226.88c0.85,4.22,4.43,5.51,8.14,6.06c2.93,0.43,5.93,0.35,8.89,0.51c4.32,0.07,8.52-0.55,12.75-1.55
			c7.16-1.71,8.36-6.78,7.75-12.84c-0.69-6.75-5.05-8.65-11.25-7.81c-7.67,1.03-14.45,4.36-21.02,8.15
			C214.33,221.01,211.09,222.84,211.9,226.88z M218.51,224.21c0,0,0.72-2.06,8.31-4.71c0.4-0.14,0.6-0.21,0.93-0.31
			c8.53-2.82,13-4.17,15.49-2.39c1.96,1.4,2.55,4.75,0.93,7.29c-0.35,0.55-1.29,2.46-6.9,4.3c-6.33,2.09-15.39,3.64-18.13-0.46
			C218.5,226.97,218.05,225.47,218.51,224.21z"/>
		<path class="st0" d="M133,123.15c-1.48-7.64-4.56-12.56-12.51-12.68c-17.95-0.25-35.89-0.21-53.84-0.03
			c-6.83,0.07-11.09,3.75-12.24,10.68c-0.71,4.26-1.66,8.46-2.16,12.75c-1.1,9.59,2.29,13.94,11.82,14.35
			c9.63,0.42,19.28,0.09,28.92,0.09c0,0.03,0,0.05,0,0.08c6.65,0,13.3,0.08,19.94-0.01C135.67,148.05,137.32,145.6,133,123.15z
			 M93.49,143.42c-9.29-0.01-18.57,0.01-27.86-0.01c-6.71-0.01-9.95-2.93-8.32-9.99c0.59-2.57,0.97-5.2,1.27-7.82
			c0.8-6.88,3.7-10.53,11.53-10.27c15.91,0.52,31.84,0.05,47.76,0.21c8.4,0.09,12.94,7.94,12.25,20.83
			c-0.43,7.99-6.57,6.95-11.75,7.03C110.08,143.52,101.79,143.43,93.49,143.42z"/>
		<path class="st0" d="M68.91,152.65c-6.79-0.07-11.47,4.26-11.64,10.96c-0.18,7.11,4.14,11.83,11.61,11.99
			c7.42,0.14,11.36-4.17,12.19-11.22C80.61,156.47,75.92,152.73,68.91,152.65z M69.41,170.78c-3.83,0.07-6.91-2.1-6.96-6.53
			c-0.04-3.83,2.17-5.97,5.9-6.5c0.72-0.1,1.99-0.24,3.41,0.35c2.02,0.82,3.51,2.78,3.89,4.98c0.48,2.78-0.91,5.58-3.08,6.87
			C71.29,170.69,70.03,170.77,69.41,170.78z"/>
		<path class="st0" d="M113.2,152.65c-6.79-0.07-11.47,4.26-11.64,10.96c-0.18,7.11,4.14,11.83,11.61,11.99
			c7.42,0.14,11.36-4.17,12.19-11.22C124.92,156.47,120.21,152.73,113.2,152.65z M113.71,170.78c-3.83,0.07-6.91-2.1-6.96-6.53
			c-0.04-3.83,2.17-5.97,5.9-6.5c0.72-0.1,1.99-0.24,3.41,0.35c2.02,0.82,3.51,2.78,3.89,4.98c0.48,2.78-0.91,5.58-3.08,6.87
			C115.58,170.69,114.32,170.77,113.71,170.78z"/>
		<path class="st0" d="M105.6,105.38H81.48c-0.68,0-1.21-0.55-1.21-1.21v-4.58c0-0.68,0.55-1.21,1.21-1.21h24.12
			c0.68,0,1.21,0.55,1.21,1.21v4.58C106.83,104.85,106.28,105.38,105.6,105.38z"/>
	</g>
</g>
</svg>
