<?xml version="1.0" encoding="utf-8"?>
<!-- Generator: $$$/GeneralStr/196=Adobe Illustrator 27.6.0, SVG Export Plug-In . SVG Version: 6.00 Build 0)  -->
<svg version="1.1" id="Capa_1" xmlns="http://www.w3.org/2000/svg" xmlns:xlink="http://www.w3.org/1999/xlink" x="0px" y="0px"
	 viewBox="0 0 300 300" style="enable-background:new 0 0 300 300;" xml:space="preserve">
<style type="text/css">
	.st0{fill:none;stroke:#FFFFFF;stroke-width:10.1443;stroke-miterlimit:10;}
	.st1{fill:#FFFFFF;}
</style>
<g>
	<path class="st1" d="M237.26,195.51c-2.19,3.45-1.33,6.51,1.63,9.12c3.02,2.66,6.21,2.99,9.17,0.12c3.16-3.06,6.38-6.15,9.02-9.65
		c16.72-22.22,25.8-47.09,25.67-75.07c0.01-22.86-7.62-50.42-19.28-70.05c-4.31-7.25-9.93-13.36-16.2-18.91
		c-3-2.65-6.17-2.77-9.23-0.02c-2.95,2.66-3.68,5.7-1.27,9.1c2.55,3.6,5.24,7.1,7.75,10.72c28.89,41.73,28.33,94.92-1.39,136.2
		C241.14,189.85,239.1,192.62,237.26,195.51z"/>
	<path class="st1" d="M80.74,164.82c1.91,2.83,3.89,5.63,6.07,8.26c3.01,3.63,6.56,6.16,11.38,3.05c4.9-3.17,4-7.24,1.45-11.41
		c-1.27-2.08-2.65-4.1-3.91-6.19c-16.96-28.19-17.22-56.25,0.75-84.13c1.32-2.05,2.96-3.92,4.12-6.04c1.62-2.95,0.81-5.67-1.62-7.86
		c-2.43-2.19-5.17-2.7-8.02-0.85c-4.62,2.99-7.99,7.17-10.63,11.91c-8.24,14.78-13.19,30.42-12,48.02
		C66.95,135.83,71.41,151,80.74,164.82z"/>
	<path class="st1" d="M63.02,36.18c3.43-5.26,0.29-10.76-5.96-11.15c-3.84-0.24-6.19,1.11-11.47,7.97
		c-28.38,36.8-34.96,77.66-21.9,121.78c4.47,15.11,12.14,28.8,22.51,40.82c6.64,7.7,10.42,8.66,15.72,4.09
		c6.49-5.6,0.48-9.43-2.07-13.66c-1.26-2.08-3.05-3.83-4.37-5.88c-25.97-40.46-28.89-82.13-5.95-124.82
		C53.19,48.5,58.75,42.71,63.02,36.18z"/>
	<path class="st1" d="M200.45,171.89c5.35,4.68,8.98,1.48,12.19-2.72c12.21-15.96,19.96-33.61,20.1-49.38
		c-0.1-22.82-5.44-39.41-15.09-54.63c-2.06-3.25-4.8-6.2-7.69-8.77c-2.89-2.56-6.39-2.27-9.44,0.13c-3.28,2.58-3.34,5.72-1.12,9.06
		c1.09,1.63,2.22,3.23,3.25,4.9c18.77,30.08,19.68,59.8-2.24,88.78C196.93,163.86,195.59,167.64,200.45,171.89z"/>
	<path class="st1" d="M149.65,162.72c-22.96,0.53-34.22,17.59-33.47,37.81c0.17,4.45,2.09,7.47,6.89,7.86
		c5.09,0.41,8.61-1.41,9.31-6.9c0.62-4.86,1.55-9.63,3.8-14.04c3.14-6.17,7.96-9.98,15.12-9.53c7.23,0.46,11.51,5.16,13.58,11.59
		c1.18,3.64,1.12,7.67,1.67,11.52c0.76,5.29,4.05,7.56,9.19,7.27c4.81-0.27,6.45-3.42,7.08-7.77
		C185.77,180.28,170.49,162.79,149.65,162.72z"/>
	<path class="st1" d="M149.6,144.75c18.55,0.1,32.73-13.95,32.62-32.32c-0.1-16.53-14.99-29.66-33.46-29.49
		c-18.13,0.16-32.23,13.79-32.02,30.97C116.94,130.46,132.06,144.65,149.6,144.75z M150.36,97.54c8.42,0.29,15.68,8.18,15.27,16.59
		c-0.37,7.7-7.94,15.34-15.17,15.31c-7.55-0.03-16.34-8.73-16.33-16.16C134.14,105.1,142.21,97.27,150.36,97.54z"/>
	<path class="st1" d="M182.71,264.87c0.16-9.26,0.13-18.53-0.03-27.79c-0.1-5.83-3.31-9.02-9.2-9.1
		c-7.82-0.11-15.64-0.03-23.46-0.03c0-0.04,0-0.07,0-0.11c-7.33,0-14.68-0.24-22,0.06c-10.28,0.42-11.44,1.63-11.91,12.27
		c-0.32,7.3-0.37,14.64-0.07,21.94c0.4,10.07,1.75,12.4,11.97,12.73c15.58,0.5,31.21-0.45,46.81-1.11
		C180,273.53,182.62,269.87,182.71,264.87z M161.6,259.01c-6.65,1.81-13.51,1.22-20.26,0.53c-4.85-0.5-8.28-3.03-7.84-8.51
		c0.38-4.76,3.79-6.46,8.02-6.77c2.89-0.21,5.82-0.04,8.73-0.04c0.01-0.2,0.02-0.39,0.03-0.59c3.85,0.4,7.77,0.45,11.52,1.29
		c3.04,0.68,4.77,3.21,5.05,6.4C167.18,255.25,165.2,258.03,161.6,259.01z"/>
</g>
</svg>
