<?xml version="1.0" encoding="utf-8"?>
<!-- Generator: $$$/GeneralStr/196=Adobe Illustrator 27.6.0, SVG Export Plug-In . SVG Version: 6.00 Build 0)  -->
<svg version="1.1" id="Capa_1" xmlns="http://www.w3.org/2000/svg" xmlns:xlink="http://www.w3.org/1999/xlink" x="0px" y="0px"
	 viewBox="0 0 300 300" style="enable-background:new 0 0 300 300;" xml:space="preserve">
<style type="text/css">
	.st0{fill:none;stroke:#FFFFFF;stroke-width:10.1443;stroke-miterlimit:10;}
	.st1{fill:#FFFFFF;}
</style>
<path class="st1" d="M275.53,83.63c-0.27-13.84-5.55-24.06-16.15-32.18c-12.47-9.54-27.02-14.31-42.01-17.92
	C181.73,24.95,145.75,22.36,109.4,28c-23.49,3.65-46.85,7.88-67.26,21.33C30.48,57,23.9,66.95,24.35,81.71
	c0.68,22.26,0.18,44.55,0.18,66.83c0.01,0,0.03,0,0.04,0c0,23.21,0.4,46.42-0.14,69.62c-0.34,14.61,6.05,24.66,17.73,32.48
	c14.2,9.5,30.11,14.5,46.55,18.01c40.59,8.66,81.25,8.23,121.89,0.2c15.66-3.1,30.52-8.48,43.98-17.03
	c10.52-6.69,18.83-15.19,18.66-29.04C272.66,176.37,276.44,130.05,275.53,83.63z M44.52,66.67c7.59-8.71,17.73-13.55,28.52-16.71
	c32.4-9.49,65.33-13.08,99.2-10.18c20.11,1.72,39.6,5.11,58.6,11.65c7.96,2.74,15.58,6.21,21.77,12.11
	c9.47,9.02,9.1,17.55-1.35,25.62c-3.28,2.53-7.02,4.59-10.79,6.33c-19.6,9.04-40.08,14.73-61.72,16.09
	c-9.27,0.59-18.5,1.76-27.39,2.63c-28.56-2.82-57.08-3.5-83.87-14.41c-8.25-3.36-16.25-7.03-22.47-13.61
	C38.4,79.19,38.17,73.95,44.52,66.67z M50.96,108.66c35.26,15.74,72.63,19.87,110.54,18.31c30.25-1.24,60.2-5.82,88.27-18.51
	c8.53-3.85,12.23-1.28,11.76,8.05c-0.58,11.52-6.03,20.06-16.37,25.75c-21.66,11.93-45.17,16.99-69.47,18.96
	c-8.32,0.67-16.75,0.11-23.69,0.11c-22.52,1.54-43.24-1.02-63.74-5.81c-12.78-2.99-24.9-7.6-36.25-14.23
	c-9.89-5.78-13.97-14.53-13.41-25.68C39.08,106.06,41.59,104.48,50.96,108.66z M246.5,240.08c-12.68,7.14-26.28,12.24-40.42,14.95
	c-19.14,3.67-38.41,7.33-58.15,6.71c-27.01-1.31-53.68-4.71-79.33-13.89c-7.03-2.51-13.73-5.66-19.6-10.44
	c-7.87-6.4-11.08-14.66-10.44-24.58c0.54-8.38,2.68-9.92,10.53-6.35c15.35,6.97,31.24,12.01,47.92,14.4
	c40.83,5.85,81.57,6.03,122.04-2.87c10.94-2.41,21.1-7.18,31.39-11.52c8.19-3.46,11.07-1.48,11.28,7.36
	C261.99,225.6,256.77,234.3,246.5,240.08z M252.86,185.55c-6.73,5.85-14.41,10.09-22.85,13.07c-25.68,9.07-52.04,13.89-79.82,13.01
	c-23.5,1.19-46.8-2.81-69.76-9.19c-10.82-3.01-21.01-7.47-30.31-13.84c-8.98-6.14-12.11-14.97-11.43-25.36
	c0.53-8.06,3.32-9.99,10.77-6.31c16.06,7.96,33.19,12.27,50.69,14.74c22.47,3.17,44.93,5.4,67.89,3.43
	c19.05-1.64,37.89-3.32,56.39-8.35c9.03-2.46,17.59-5.89,26.07-9.75c7.44-3.38,10.14-1.72,11.13,6.19
	C262.75,172.19,259.63,179.67,252.86,185.55z"/>
</svg>
