<?xml version="1.0" encoding="utf-8"?>
<!-- Generator: $$$/GeneralStr/196=Adobe Illustrator 27.6.0, SVG Export Plug-In . SVG Version: 6.00 Build 0)  -->
<svg version="1.1" id="Capa_1" xmlns="http://www.w3.org/2000/svg" xmlns:xlink="http://www.w3.org/1999/xlink" x="0px" y="0px"
	 viewBox="0 0 300 300" style="enable-background:new 0 0 300 300;" xml:space="preserve">
<style type="text/css">
	.st0{display:none;}
	.st1{display:inline;}
	.st2{fill:url(#SVGID_1_);}
	.st3{fill:url(#SVGID_00000133491784642209610170000004452338545691335310_);}
	.st4{fill:url(#SVGID_00000112625872151991813360000000889989500175527091_);}
</style>
<g class="st0">
	<g class="st1">
		<linearGradient id="SVGID_1_" gradientUnits="userSpaceOnUse" x1="150" y1="295.7771" x2="150" y2="4.2229">
			<stop  offset="2.131116e-07" style="stop-color:#105101"/>
			<stop  offset="1" style="stop-color:#01244B"/>
		</linearGradient>
		<path class="st2" d="M150,12.22c36.8,0,71.4,14.33,97.42,40.35c26.02,26.02,40.35,60.62,40.35,97.42s-14.33,71.4-40.35,97.42
			c-26.02,26.02-60.62,40.35-97.42,40.35s-71.4-14.33-97.42-40.35C26.55,221.4,12.22,186.8,12.22,150s14.33-71.4,40.35-97.42
			C78.6,26.55,113.2,12.22,150,12.22 M150,4.22C69.49,4.22,4.22,69.49,4.22,150S69.49,295.78,150,295.78S295.78,230.51,295.78,150
			S230.51,4.22,150,4.22L150,4.22z"/>
	</g>
</g>
<g>
	
		<linearGradient id="SVGID_00000062882882799631909050000010361292321954627214_" gradientUnits="userSpaceOnUse" x1="22.7021" y1="150" x2="277.2979" y2="150">
		<stop  offset="2.131116e-07" style="stop-color:#105101"/>
		<stop  offset="1" style="stop-color:#01244B"/>
	</linearGradient>
	<path style="fill:url(#SVGID_00000062882882799631909050000010361292321954627214_);" d="M22.74,244.29
		c1.32-7.58,3.6-14.8,7.9-21.27c8.51-12.8,20.41-20.27,35.53-22.67c10.78-1.71,21.56-3.4,32.34-5.08c1.7-0.26,3.01-1,4.21-2.31
		c3.84-4.23,7.77-8.38,11.79-12.45c1.42-1.44,1.38-2.26-0.25-3.44c-8.56-6.26-14.77-14.43-18.96-24.13
		c-2.67-6.2-4.22-12.71-4.66-19.47c-0.39-5.96-0.39-11.93-0.32-17.9c0.06-5.15-0.19-10.15-1.88-15.17
		c-1.99-5.88-1.25-12.16-1.19-18.28c0.03-2.6-0.6-4.76-2.04-6.95c-6.44-9.78-3.83-19.24,6.62-24.62
		c16.34-8.41,32.71-16.76,48.98-25.31c6.18-3.25,12.02-3.23,18.19,0.02c16.42,8.62,32.95,17.02,49.42,25.54
		c9.76,5.05,12.45,14.54,6.5,23.77c-1.76,2.73-2.51,5.4-2.4,8.59c0.28,7.72,0.28,15.43-2.77,22.77c-0.33,0.8-0.22,1.8-0.23,2.71
		c-0.15,8.29,0.2,16.57-0.36,24.86c-0.78,11.67-4.68,22.13-11.56,31.51c-3.45,4.7-7.47,8.88-12.25,12.25
		c-1.44,1.02-1.53,1.78-0.26,3.08c4.27,4.39,8.47,8.87,12.63,13.37c1.2,1.3,2.75,1.4,4.28,1.65c11.51,1.85,23.06,3.46,34.52,5.57
		c21.03,3.88,37.49,21.46,40.2,42.67c1.09,8.5,0.27,17.06,0.46,25.59c0.06,2.65-0.1,5.3-0.15,7.95c-4.97,0-9.93,0-14.9,0
		c-0.06-1.15-0.14-2.31-0.17-3.46c-0.2-8.77,0.39-17.56-0.36-26.33c-1.34-15.67-12.61-28.4-28.09-31.22
		c-10.48-1.91-21.05-3.29-31.54-5.15c-2.6-0.46-3.86,0.26-5.14,2.4c-5.18,8.67-10.51,17.25-15.82,25.84
		c-3.16,5.12-3.18,5.11-7.54,1.11c-2.54-2.33-2.38-2.18-4.71,0.28c-2,2.11-2.13,3.95-0.99,6.6c3.9,9.05,7.52,18.21,11.23,27.34
		c0.34,0.83,0.87,1.62,0.67,2.6c-5.46,0-10.93,0-16.39,0c-2.35-5.82-4.71-11.63-7.04-17.46c-0.37-0.93-0.68-1.36-1.95-1.15
		c-2.92,0.49-5.93,0.49-8.86,0c-1.27-0.21-1.58,0.22-1.95,1.15c-2.33,5.82-4.68,11.64-7.03,17.46c-5.46,0-10.93,0-16.39,0
		c-0.19-0.97,0.34-1.77,0.67-2.6c3.9-9.59,7.82-19.16,11.71-28.75c0.33-0.81,1.08-1.66,0.42-2.55c-1.23-1.65-2.28-3.82-3.96-4.63
		c-1.33-0.65-2.39,1.85-3.75,2.72c-0.34,0.22-0.63,0.53-0.94,0.81c-2.39,2.15-2.4,2.15-4.08-0.58c-5.9-9.59-11.81-19.17-17.66-28.8
		c-0.98-1.61-1.93-2.24-3.98-1.88c-8.87,1.54-17.76,2.95-26.67,4.2c-8.18,1.15-15.82,3.44-22.12,9.1
		c-8.21,7.37-11.8,16.77-11.92,27.64c-0.09,8.45-0.12,16.89-0.18,25.34c-4.47,0-8.94-0.05-13.41,0.03
		c-1.25,0.02-1.53-0.28-1.52-1.53C22.76,265.2,22.74,254.75,22.74,244.29z M150.5,173.57c2.39,0.09,5.52-0.18,8.6-0.89
		c21.83-4.99,36.31-24.48,34.87-46.81c-0.1-1.58-0.55-1.9-1.94-1.19c-5.9,2.98-12.19,3.91-18.76,3.85
		c-15.06-0.12-30.13-0.13-45.19,0c-7.13,0.06-14.04-0.6-20.48-3.93c-1.33-0.69-1.79-0.21-1.77,1.17c0.03,2.57,0.07,5.13,0.32,7.69
		C108.4,156.44,126.9,173.49,150.5,173.57z M149.85,83.95c14.73,0,29.46-0.04,44.19,0.04c2.29,0.01,3.25-0.71,2.92-2.98
		c-0.75-5.08,0.77-9.45,4.06-13.28c0.05-0.06,0.09-0.14,0.14-0.2c1.41-1.57,1.11-2.58-0.8-3.55c-16.22-8.28-32.4-16.62-48.59-24.97
		c-1.29-0.67-2.44-0.7-3.75-0.02c-16.18,8.35-32.37,16.69-48.59,24.97c-1.84,0.94-2.3,1.87-0.89,3.54c3.22,3.81,4.9,8.06,4.31,13.23
		c-0.36,3.18-0.05,3.23,3.29,3.23C120.72,83.95,135.29,83.95,149.85,83.95z M150.03,99.56c-14.32,0-28.63,0-42.95,0
		c-2.7,0-2.87,0.2-1.52,2.57c3.67,6.42,9.16,10.51,16.58,10.62c18.28,0.28,36.58,0.21,54.86,0.07c7.55-0.06,13.17-3.92,17.09-10.28
		c1.64-2.67,1.44-2.98-1.6-2.99C178.33,99.56,164.18,99.56,150.03,99.56z M138.39,207.35c-0.13-0.17-0.29-0.46-0.51-0.69
		c-4.18-4.35-8.39-8.68-12.56-13.04c-0.94-0.98-1.55-0.43-2.23,0.3c-2.43,2.59-4.85,5.2-7.33,7.74c-0.93,0.95-0.91,1.76-0.23,2.84
		c2.94,4.7,5.85,9.41,8.69,14.17c0.76,1.27,1.29,1.38,2.38,0.33c3.63-3.49,7.36-6.89,11.04-10.33
		C137.97,208.33,138.47,208.08,138.39,207.35z M175.45,192.89c-0.45,0.35-0.87,0.61-1.2,0.95c-4.08,4.21-8.14,8.45-12.24,12.65
		c-0.86,0.88-0.68,1.44,0.17,2.22c3.72,3.4,7.41,6.83,11.06,10.31c0.93,0.89,1.48,1.05,2.24-0.21c2.89-4.82,5.83-9.61,8.81-14.38
		c0.69-1.11,0.59-1.91-0.31-2.83c-2.42-2.48-4.78-5.04-7.17-7.55C176.42,193.65,175.95,193.32,175.45,192.89z M159.07,227.89
		c0.08-0.76-0.24-1.15-0.6-1.49c-2.53-2.37-5.09-4.72-7.62-7.1c-0.67-0.63-1.25-0.64-1.93-0.01c-2.53,2.38-5.08,4.74-7.62,7.09
		c-0.84,0.78-0.74,1.53-0.06,2.38c2.42,3.04,4.83,6.08,7.19,9.17c1.03,1.34,1.85,1.37,2.89,0.01c2.31-3.02,4.68-5.99,7.03-8.99
		C158.65,228.57,158.89,228.15,159.07,227.89z M157.5,189.55c-0.16-0.27-0.32-0.54-0.48-0.82c-4.77,0.64-9.54,0.57-14.63,0.48
		c1.98,2.43,4.25,4.42,6.48,6.46c0.79,0.73,1.4,0.58,2.12-0.1C153.14,193.55,155.33,191.55,157.5,189.55z"/>
	
		<linearGradient id="SVGID_00000029755050079422966250000016592552455707930241_" gradientUnits="userSpaceOnUse" x1="142.0829" y1="64.9239" x2="157.6805" y2="64.9239">
		<stop  offset="2.131116e-07" style="stop-color:#105101"/>
		<stop  offset="1" style="stop-color:#01244B"/>
	</linearGradient>
	<path style="fill:url(#SVGID_00000029755050079422966250000016592552455707930241_);" d="M149.88,72.75c-4.35,0-7.88-3.58-7.8-7.92
		c0.07-4.2,3.63-7.73,7.79-7.73c4.16,0,7.73,3.53,7.8,7.72C157.76,69.16,154.23,72.75,149.88,72.75z"/>
</g>
</svg>
