<?xml version="1.0" encoding="utf-8"?>
<!-- Generator: $$$/GeneralStr/196=Adobe Illustrator 27.6.0, SVG Export Plug-In . SVG Version: 6.00 Build 0)  -->
<svg version="1.1" id="Capa_1" xmlns="http://www.w3.org/2000/svg" xmlns:xlink="http://www.w3.org/1999/xlink" x="0px" y="0px"
	 viewBox="0 0 300 300" style="enable-background:new 0 0 300 300;" xml:space="preserve">
<style type="text/css">
	.st0{fill:none;stroke:#FFFFFF;stroke-width:10.1443;stroke-miterlimit:10;}
	.st1{fill:#FFFFFF;}
	.st2{fill:none;stroke:#FFFFFF;stroke-width:10.1233;stroke-miterlimit:10;}
</style>
<g>
	<path class="st1" d="M161.11,28.8c8.54,1.75,16.38,5.14,22.41,11.52c4.57,4.83,9.37,9.09,14.9,12.87
		c8.19,5.6,11.47,14.4,12.6,24.07c0.82,6.97-0.24,13.76-1.59,20.55c-0.18,0.89-0.43,1.7,0.42,2.45c4.09,3.63,4.81,8.6,4.82,13.59
		c0.01,4.62-0.64,9.22-2.7,13.51c-2.04,4.25-5.15,7.31-9.64,8.75c-1.67,0.54-2.26,1.73-2.83,3.07c-3.51,8.22-8.22,15.69-14.28,22.26
		c-8.46,9.17-18.44,15.63-31.17,16.99c-8.46,0.9-16.33-1.15-23.63-5.28c-12.71-7.18-21.26-18.14-27.56-31.05
		c-0.64-1.31-1.25-2.64-1.85-3.98c-0.35-0.79-0.87-1.34-1.73-1.57c-8.3-2.18-11.71-8.39-13.2-16.13c-0.82-4.27-0.85-8.55,0.16-12.81
		c0.88-3.71,2.61-6.85,6.11-8.67c1.84-0.96,1.67-2.67,1.74-4.23c0.32-6.92,1.44-13.7,3.18-20.41c3.27-12.68,10.94-22.31,20.85-30.41
		c9.35-7.64,19.8-12.97,31.78-15.07C153.63,28.8,157.37,28.8,161.11,28.8z M105.16,103.04c-0.03,3.33-0.1,6.64,0.39,9.96
		c2.58,17.42,9.41,32.71,22.49,44.82c5.67,5.25,12.29,8.76,20.17,9.37c10.11,0.79,18.42-3.32,25.52-10.03
		c12.01-11.37,18.54-25.67,21.38-41.77c0.7-3.99,1.82-8.17,0.74-12.08c-3.44-12.53-9.14-23.94-18.02-33.62
		c-1.41-1.54-2.22-1.46-3.62-0.02c-5.99,6.18-12.94,11.11-20.64,14.93c-14.51,7.2-29.97,9.88-46.05,9.28
		c-1.87-0.07-2.46,0.55-2.38,2.33C105.24,98.49,105.16,100.77,105.16,103.04z"/>
	<path class="st1" d="M97.18,278.74c-10.56,0-21.13,0.02-31.69-0.01c-8.97-0.02-14.2-5.3-14.21-14.32
		c-0.02-10.16-0.01-20.31,0-30.47c0.02-26.65,16.79-49.1,42.45-56.57c6.07-1.77,12.29-3.03,18.43-4.57
		c1.14-0.28,2.04-0.07,2.93,0.67c8.25,6.85,16.51,13.69,24.8,20.5c1.06,0.87,0.84,1.5,0.34,2.65c-2.22,5.09-3.32,10.52-4.11,15.97
		c-0.41,2.82,1.7,5.58,4.66,6.38c2.15,0.58,2.3,1.6,1.97,3.48c-2.89,16.14-5.7,32.29-8.53,48.43c-0.28,1.6-0.63,3.19-0.79,4.8
		c-0.22,2.22-1.12,3.14-3.57,3.11C118.96,278.66,108.07,278.74,97.18,278.74z"/>
	<path class="st1" d="M202.99,278.74c-10.89,0-21.78-0.05-32.66,0.05c-2.13,0.02-3-0.67-3.36-2.76
		c-3.07-17.83-6.21-35.66-9.37-53.47c-0.34-1.9-0.21-3.01,2.09-3.66c3.46-0.97,5.22-4.33,4.32-7.91c-1.28-5.08-1.6-10.45-4.34-15.12
		c-0.52-0.88,0.12-1.35,0.69-1.82c8.32-6.89,16.64-13.78,24.96-20.68c0.73-0.61,1.52-0.89,2.48-0.65c9.34,2.41,19.02,3.74,27.72,8.2
		c19,9.75,30.54,24.93,32.55,46.48c1.2,12.87,0.46,25.82,0.34,38.73c-0.07,7.72-5.5,12.56-13.24,12.58
		C224.44,278.77,213.71,278.74,202.99,278.74z"/>
</g>
</svg>
