<?xml version="1.0" encoding="utf-8"?>
<!-- Generator: $$$/GeneralStr/196=Adobe Illustrator 27.6.0, SVG Export Plug-In . SVG Version: 6.00 Build 0)  -->
<svg version="1.1" id="Capa_1" xmlns="http://www.w3.org/2000/svg" xmlns:xlink="http://www.w3.org/1999/xlink" x="0px" y="0px"
	 viewBox="0 0 300 300" style="enable-background:new 0 0 300 300;" xml:space="preserve">
<style type="text/css">
	.st0{fill:#FFFFFF;}
</style>
<g>
	<g>
		<path class="st0" d="M254.56,113.21c-1.93-1.1-4.04-1.89-6.18-2.87c0.91-0.91,1.75-1.7,2.54-2.53c3.68-3.81,5.68-8.39,5.77-13.65
			c0.27-16.08-16.58-26.23-30.61-18.43c-1.63,0.91-2.23,0.54-3.17-0.7c-1.75-2.32-3.89-4.28-6.16-6.12
			c-3.59-2.91-7.73-4.81-12.06-6.59c10.83-8.89,10.54-22.28,3.17-30.44c-7.93-8.76-21.15-9.21-29.59-1.02
			c-4.1,3.97-6.24,8.91-6.24,14.57c0,6.9,2.92,12.53,8.63,16.95c-7.62,2.64-13.87,6.83-18.67,12.99c-0.98,1.25-1.72,0.4-2.53-0.01
			c-5.08-2.62-10.38-3.04-15.78-1.32c-2.15,0.69-4.43,2.91-6.14,2.48c-1.89-0.49-3.13-3.29-4.79-4.97
			c-4.21-4.23-9.35-7.04-14.99-9.12c11.88-9.94,9.71-24.11,2.54-31.26c-8.07-8.05-20.89-8.13-29.05-0.19
			c-7.3,7.11-9.68,21.28,2.15,31.31c-0.34,0.47-0.88,0.57-1.39,0.77c-6.04,2.27-11.31,5.75-15.5,10.66
			c-1.43,1.69-2.38,2.02-4.55,1.09c-7.53-3.26-14.8-2.23-21.11,2.98c-6.1,5.04-8.54,11.67-7.13,19.64
			c0.94,5.34,3.87,9.39,8.08,12.96c-1.06,0.43-1.88,0.78-2.69,1.11c-14.2,5.8-24.23,20.05-24.37,34.67
			c-0.04,3.72,0.69,4.47,4.35,4.47c23.14,0,46.29,0,69.43,0c3.79,0,4.78-0.95,4.48-4.65c-1.12-14.29-7.71-25.21-20.22-32.39
			c-2.16-1.24-4.47-2.2-6.87-3.35c2.43-1.79,4.34-3.84,5.67-6.36c0.57-1.1,1.37-1.23,2.41-1.23c15.25,0.01,30.5,0.01,45.74,0.01
			c0.89,0,1.76-0.11,2.31,0.96c1.35,2.64,3.46,4.7,5.91,6.78c-1.14,0.45-1.97,0.78-2.78,1.11c-14.23,5.81-24.24,20.15-24.38,34.97
			c-0.03,3.24,0.86,4.15,4.19,4.15c23.33,0.01,46.65,0.01,69.98,0c3.4,0,4.25-0.92,4.19-4.42c-0.27-14.85-10.38-29.13-24.61-34.82
			c-0.75-0.31-1.86-0.15-2.25-1.26c1.97-1.63,3.88-3.35,5.06-5.62c0.8-1.56,1.84-1.88,3.45-1.86c14.43,0.05,28.86,0.09,43.29-0.03
			c2.36-0.01,4.06,0.29,5.2,2.66c0.98,2.04,2.84,3.49,4.88,5.11c-1.24,0.49-2.08,0.78-2.9,1.15c-14.94,6.78-23.06,18.36-24.33,34.71
			c-0.26,3.28,0.8,4.37,3.96,4.38c23.51,0.01,47.01,0.01,70.52,0c2.96,0,3.93-0.93,3.79-3.92
			C274.57,131.72,267.5,120.62,254.56,113.21z M177.71,45.55c0.01-8.42,6.53-14.85,14.99-14.83c8.17,0.03,14.81,6.62,14.89,14.79
			c0.08,8.2-6.73,15.02-14.99,15.02C184.25,60.53,177.7,53.96,177.71,45.55z M90.64,45.66c-0.03-8.26,6.7-14.94,15.03-14.93
			c8.4,0.01,14.95,6.58,14.94,14.95c-0.01,8.29-6.77,14.93-15.09,14.84C97.31,60.43,90.67,53.79,90.64,45.66z M97.03,142.19
			c0.42,2.13,0.01,2.8-2.3,2.77c-10.33-0.13-20.66-0.05-30.99-0.05c-10.15,0-20.3-0.13-30.46,0.09c-2.8,0.06-2.86-1.05-2.54-3.12
			c1.94-12.44,12.5-23.78,24.84-26.61C75.22,110.75,93.08,122.39,97.03,142.19z M63.89,108.61c-8.22-0.01-15.07-6.84-15.04-15.04
			c0.03-8.26,6.74-14.86,15.11-14.84c8.39,0.03,14.81,6.58,14.79,15.06C78.7,101.91,71.99,108.61,63.89,108.61z M132.68,82.63
			c-2.41,3.64-3.6,7.75-3.19,12.09c0.2,2.2-0.59,2.26-2.29,2.23c-6.81-0.08-13.61-0.03-20.42-0.03c-6.9,0-13.79-0.03-20.69,0.03
			c-1.43,0.01-1.97-0.13-1.8-1.89c0.47-5.04-0.86-9.74-4.05-13.69c-1.29-1.6-1.01-2.43,0.18-3.81c13.7-15.89,39.69-14.86,52.14,2.08
			C133.37,80.71,133.49,81.41,132.68,82.63z M183.04,141.52c0.66,3.38,0.73,3.38-2.62,3.38c-10.17,0-20.33,0-30.5,0
			c-10.25,0-20.51-0.06-30.78,0.05c-2.09,0.03-2.64-0.51-2.36-2.55c1.85-13.55,14.09-25.53,27.63-27.76
			C161.93,111.74,179.4,123.16,183.04,141.52z M150.13,108.61c-8.19,0.13-15.02-6.67-15.02-14.97c-0.01-8.44,6.49-14.94,14.9-14.94
			c8.4,0,14.92,6.54,14.89,14.95C164.88,101.86,158.33,108.49,150.13,108.61z M219.23,82c-2.75,3.91-4.02,8.31-3.51,13.06
			c0.19,1.8-0.42,1.88-1.81,1.86c-6.9-0.05-13.79-0.03-20.69-0.03c-6.81,0-13.61-0.05-20.41,0.04c-1.71,0.03-2.45-0.06-2.29-2.25
			c0.38-4.83-1.01-9.32-3.97-13.2c-0.88-1.15-0.86-1.88,0.01-3.01c12.64-16.6,40.53-16.19,52.69,0.79
			C219.98,80.3,219.97,80.95,219.23,82z M221.27,93.39c0.06-8.38,6.64-14.75,15.16-14.67c8.13,0.08,14.81,6.86,14.72,14.95
			c-0.08,8.24-6.99,15.04-15.16,14.94C227.75,108.51,221.22,101.77,221.27,93.39z M266.76,145c-10.24-0.22-20.48-0.09-30.73-0.09
			c-10.33,0-20.66-0.05-30.99,0.04c-2.02,0.01-2.44-0.6-2.12-2.48c2.95-17.23,18.12-29.28,35.64-28.26
			c14.88,0.87,28.38,13.04,30.7,27.65C269.59,143.89,269.59,145.05,266.76,145z"/>
		<path class="st0" d="M194.25,170.93c-12.99-2.73-25.95-5.52-38.95-8.15c-2.23-0.45-4.39-1.32-6.9-0.78
			c-14.12,3.06-28.27,5.98-42.42,8.89c-2.48,0.51-3.4,1.81-3.38,4.35c0.08,15.07,0.05,30.13,0.04,45.19c0,2.64,0.26,5.27,0.86,7.82
			c5.36,22.95,19.56,37.94,41.54,45.86c3.36,1.21,6.59,1.14,10,0.01c8.29-2.72,15.73-6.9,22.14-12.78
			c12.85-11.8,20.45-26.09,20.22-43.96c-0.08-6.17-0.01-12.34-0.01-18.52c0-7.98-0.05-15.98,0.04-23.96
			C197.43,172.58,196.43,171.39,194.25,170.93z M191.84,199.73c-0.06,0-0.14,0-0.2,0c0,7.52,0.28,15.07-0.06,22.58
			c-0.49,10.68-4.95,19.91-11.6,28.08c-7.37,9.07-16.5,15.61-27.93,18.72c-1.48,0.4-2.8,0.41-4.23-0.06
			c-21.25-6.92-34.26-21.34-39.09-43.13c-0.5-2.27-0.51-4.69-0.51-7.04c-0.05-13.42,0.01-26.86-0.08-40.28
			c-0.01-1.94,0.55-2.57,2.46-2.95c12.3-2.45,24.58-4.95,36.82-7.73c4.19-0.95,7.87,0.65,11.7,1.38c10.19,1.95,20.3,4.3,30.47,6.36
			c1.79,0.36,2.32,1.05,2.3,2.82C191.77,185.58,191.84,192.66,191.84,199.73z"/>
		<path class="st0" d="M172.05,194.8c-9.56,9.54-19.14,19.07-28.63,28.68c-1.37,1.38-2.06,1.32-3.35-0.04
			c-4.01-4.19-8.19-8.22-12.27-12.34c-1.37-1.38-2.87-2.11-4.47-0.55c-1.57,1.55-0.95,3.09,0.43,4.47
			c5.13,5.12,10.28,10.24,15.38,15.4c1.74,1.76,3.31,1.85,5.11,0.05c10.61-10.66,21.28-21.3,31.93-31.93
			c0.73-0.73,1.29-1.51,1.4-2.68c-0.1-0.32-0.18-0.78-0.4-1.16C176.14,192.71,174.14,192.73,172.05,194.8z"/>
	</g>
</g>
</svg>
