<?xml version="1.0" encoding="utf-8"?>
<!-- Generator: $$$/GeneralStr/196=Adobe Illustrator 27.6.0, SVG Export Plug-In . SVG Version: 6.00 Build 0)  -->
<svg version="1.1" id="Capa_1" xmlns="http://www.w3.org/2000/svg" xmlns:xlink="http://www.w3.org/1999/xlink" x="0px" y="0px"
	 viewBox="0 0 300 300" style="enable-background:new 0 0 300 300;" xml:space="preserve">
<style type="text/css">
	.st0{fill:#FFFFFF;}
</style>
<g>
	<g>
		<path class="st0" d="M261.12,156.05c4.33-4.3,4.25-7.97-0.14-12.35c-9.75-9.74-19.5-19.49-29.26-29.24
			c-22.56-22.56-49.85-33.95-78.28-34.38c-32.18,0.02-59.66,10.45-80.64,30.08c-11.86,11.1-23.11,22.86-34.57,34.38
			c-3.52,3.54-3.4,7.45,0.14,10.99c10.34,10.37,20.72,20.72,31.09,31.06c42.67,42.58,111.34,44.71,156.14,4.44
			C237.96,179.97,249.33,167.78,261.12,156.05z M89,184.56c-3.54-2.22-5.9-4.47-8.2-6.75c-8.66-8.56-17.27-17.19-25.87-25.81
			c-0.93-0.93-2.53-1.63-0.65-3.43c10.92-10.47,21.09-21.71,32.47-31.71c0.53-0.45,1.12-0.82,2.42-1.77
			C77.2,138.44,77.12,161.15,89,184.56z M149.58,205.54c-31.04-0.23-55.36-25.11-55.11-56.34c0.25-30.68,25.28-55.03,56.31-54.75
			c30.68,0.28,55,25.27,54.77,56.29C205.29,181.27,180.28,205.77,149.58,205.54z M211.27,183.97c11.57-22.8,11.54-45.53,0.28-68.45
			c2,1.71,4.13,3.31,6.01,5.17c9.29,9.16,18.51,18.4,27.8,27.58c1.09,1.07,1.77,1.77,0.3,3.2c-10.64,10.25-20.56,21.23-31.69,30.98
			C213.26,183.04,212.7,183.94,211.27,183.97z"/>
		<path class="st0" d="M25.02,74.06c0.03,4.97,2.75,8.03,7.08,8.06c4.38,0.02,7.11-3,7.13-7.97c0.03-9.6,0.02-19.19,0.03-28.79
			c0-5.12,0.93-6.09,5.92-6.09c9.72-0.02,19.44,0,29.16-0.05c4.84-0.03,7.7-2.62,7.78-6.93c0.08-4.38-2.97-7.25-7.84-7.27
			c-10.45-0.03-20.92-0.06-31.37,0.02c-10.31,0.08-17.75,7.62-17.86,18.01c-0.06,5.05-0.02,10.09-0.02,15.14
			C25.01,63.47,24.99,68.77,25.02,74.06z"/>
		<path class="st0" d="M274.97,225.84c-0.03-4.97-2.8-8-7.17-7.95c-4.39,0.03-7.02,2.98-7.05,8.06c-0.05,9.72,0,19.44-0.02,29.15
			c-0.02,4.55-1.1,5.62-5.65,5.64c-9.72,0.03-19.44-0.02-29.15,0.02c-5.05,0.02-7.98,2.66-8.01,7.07c-0.03,4.43,2.9,7.13,7.95,7.14
			c10.57,0.03,21.15,0.08,31.74-0.02c9.61-0.09,17.24-7.76,17.36-17.36c0.08-5.17,0.02-10.33,0.02-15.5H275
			C274.98,236.66,275.02,231.26,274.97,225.84z"/>
		<path class="st0" d="M74.01,260.76c-9.85-0.03-19.69,0-29.52-0.03c-4.04-0.02-5.22-1.21-5.23-5.3
			c-0.03-9.85,0.02-19.69-0.03-29.52c-0.02-5.06-2.67-8.01-7.08-8.04c-4.36-0.03-7.11,3-7.13,8c-0.03,10.45-0.05,20.92,0,31.37
			c0.05,9.85,7.62,17.53,17.44,17.72c5.17,0.09,10.33,0.02,15.5,0.02c5.3,0,10.57,0.02,15.87,0c5.28-0.03,8.34-2.7,8.26-7.21
			C82.01,263.31,79.15,260.78,74.01,260.76z"/>
		<path class="st0" d="M257.25,25.04c-10.34-0.06-20.67-0.03-31.01-0.02c-5.34,0.02-8.4,2.64-8.39,7.11c0.02,4.5,3.03,7.08,8.4,7.1
			c9.6,0.03,19.19-0.02,28.79,0.02c4.66,0.02,5.67,1.02,5.67,5.57c0.02,9.97-0.03,19.94,0.05,29.89c0.03,4.61,2.95,7.45,7.33,7.38
			c4.02-0.08,6.8-3.07,6.85-7.52c0.05-5.42,0.02-10.82,0.02-16.24c0-5.3,0.09-10.59-0.02-15.87
			C274.74,32.62,267.1,25.08,257.25,25.04z"/>
		<path class="st0" d="M150.17,121.36c-15.16-0.47-28.68,12.78-28.81,28.18c-0.11,15.84,12.58,28.9,28.25,29.07
			c15.75,0.17,28.67-12.48,28.96-28.37C178.86,134.65,166.27,121.86,150.17,121.36z M150.38,164.17
			c-8.35,0.08-14.57-5.96-14.57-14.16c0-8.14,6.01-14.16,14.16-14.19c8.04-0.03,14.18,6.07,14.24,14.16
			C164.27,157.79,158.12,164.11,150.38,164.17z"/>
	</g>
</g>
</svg>
